G04*
G04 #@! TF.GenerationSoftware,Altium Limited,Altium Designer,21.2.2 (38)*
G04*
G04 Layer_Physical_Order=1*
G04 Layer_Color=255*
%FSLAX25Y25*%
%MOIN*%
G70*
G04*
G04 #@! TF.SameCoordinates,8CF34D0F-3D0A-4A82-AD64-C49C04CB85B6*
G04*
G04*
G04 #@! TF.FilePolarity,Positive*
G04*
G01*
G75*
%ADD12C,0.01000*%
%ADD13C,0.00800*%
G04:AMPARAMS|DCode=25|XSize=9.06mil|YSize=31.5mil|CornerRadius=2.26mil|HoleSize=0mil|Usage=FLASHONLY|Rotation=270.000|XOffset=0mil|YOffset=0mil|HoleType=Round|Shape=RoundedRectangle|*
%AMROUNDEDRECTD25*
21,1,0.00906,0.02697,0,0,270.0*
21,1,0.00453,0.03150,0,0,270.0*
1,1,0.00453,-0.01348,-0.00226*
1,1,0.00453,-0.01348,0.00226*
1,1,0.00453,0.01348,0.00226*
1,1,0.00453,0.01348,-0.00226*
%
%ADD25ROUNDEDRECTD25*%
G04:AMPARAMS|DCode=26|XSize=9.06mil|YSize=31.5mil|CornerRadius=2.26mil|HoleSize=0mil|Usage=FLASHONLY|Rotation=180.000|XOffset=0mil|YOffset=0mil|HoleType=Round|Shape=RoundedRectangle|*
%AMROUNDEDRECTD26*
21,1,0.00906,0.02697,0,0,180.0*
21,1,0.00453,0.03150,0,0,180.0*
1,1,0.00453,-0.00226,0.01348*
1,1,0.00453,0.00226,0.01348*
1,1,0.00453,0.00226,-0.01348*
1,1,0.00453,-0.00226,-0.01348*
%
%ADD26ROUNDEDRECTD26*%
G04:AMPARAMS|DCode=27|XSize=157.48mil|YSize=157.48mil|CornerRadius=3.94mil|HoleSize=0mil|Usage=FLASHONLY|Rotation=0.000|XOffset=0mil|YOffset=0mil|HoleType=Round|Shape=RoundedRectangle|*
%AMROUNDEDRECTD27*
21,1,0.15748,0.14961,0,0,0.0*
21,1,0.14961,0.15748,0,0,0.0*
1,1,0.00787,0.07480,-0.07480*
1,1,0.00787,-0.07480,-0.07480*
1,1,0.00787,-0.07480,0.07480*
1,1,0.00787,0.07480,0.07480*
%
%ADD27ROUNDEDRECTD27*%
G04:AMPARAMS|DCode=28|XSize=30mil|YSize=22mil|CornerRadius=5.5mil|HoleSize=0mil|Usage=FLASHONLY|Rotation=180.000|XOffset=0mil|YOffset=0mil|HoleType=Round|Shape=RoundedRectangle|*
%AMROUNDEDRECTD28*
21,1,0.03000,0.01100,0,0,180.0*
21,1,0.01900,0.02200,0,0,180.0*
1,1,0.01100,-0.00950,0.00550*
1,1,0.01100,0.00950,0.00550*
1,1,0.01100,0.00950,-0.00550*
1,1,0.01100,-0.00950,-0.00550*
%
%ADD28ROUNDEDRECTD28*%
G04:AMPARAMS|DCode=29|XSize=30mil|YSize=22mil|CornerRadius=5.5mil|HoleSize=0mil|Usage=FLASHONLY|Rotation=90.000|XOffset=0mil|YOffset=0mil|HoleType=Round|Shape=RoundedRectangle|*
%AMROUNDEDRECTD29*
21,1,0.03000,0.01100,0,0,90.0*
21,1,0.01900,0.02200,0,0,90.0*
1,1,0.01100,0.00550,0.00950*
1,1,0.01100,0.00550,-0.00950*
1,1,0.01100,-0.00550,-0.00950*
1,1,0.01100,-0.00550,0.00950*
%
%ADD29ROUNDEDRECTD29*%
%ADD30R,0.08268X0.09843*%
%ADD31R,0.03150X0.05118*%
G04:AMPARAMS|DCode=32|XSize=20mil|YSize=25mil|CornerRadius=5mil|HoleSize=0mil|Usage=FLASHONLY|Rotation=270.000|XOffset=0mil|YOffset=0mil|HoleType=Round|Shape=RoundedRectangle|*
%AMROUNDEDRECTD32*
21,1,0.02000,0.01500,0,0,270.0*
21,1,0.01000,0.02500,0,0,270.0*
1,1,0.01000,-0.00750,-0.00500*
1,1,0.01000,-0.00750,0.00500*
1,1,0.01000,0.00750,0.00500*
1,1,0.01000,0.00750,-0.00500*
%
%ADD32ROUNDEDRECTD32*%
%ADD33R,0.01772X0.04331*%
%ADD34R,0.21654X0.01181*%
%ADD35R,0.01772X0.06299*%
%ADD36R,0.16732X0.13780*%
%ADD37R,0.09055X0.05906*%
%ADD38R,0.11811X0.03150*%
G04:AMPARAMS|DCode=39|XSize=50mil|YSize=54mil|CornerRadius=12.5mil|HoleSize=0mil|Usage=FLASHONLY|Rotation=0.000|XOffset=0mil|YOffset=0mil|HoleType=Round|Shape=RoundedRectangle|*
%AMROUNDEDRECTD39*
21,1,0.05000,0.02900,0,0,0.0*
21,1,0.02500,0.05400,0,0,0.0*
1,1,0.02500,0.01250,-0.01450*
1,1,0.02500,-0.01250,-0.01450*
1,1,0.02500,-0.01250,0.01450*
1,1,0.02500,0.01250,0.01450*
%
%ADD39ROUNDEDRECTD39*%
%ADD40R,0.02362X0.04331*%
%ADD41R,0.10236X0.12402*%
G04:AMPARAMS|DCode=42|XSize=30mil|YSize=40mil|CornerRadius=7.5mil|HoleSize=0mil|Usage=FLASHONLY|Rotation=0.000|XOffset=0mil|YOffset=0mil|HoleType=Round|Shape=RoundedRectangle|*
%AMROUNDEDRECTD42*
21,1,0.03000,0.02500,0,0,0.0*
21,1,0.01500,0.04000,0,0,0.0*
1,1,0.01500,0.00750,-0.01250*
1,1,0.01500,-0.00750,-0.01250*
1,1,0.01500,-0.00750,0.01250*
1,1,0.01500,0.00750,0.01250*
%
%ADD42ROUNDEDRECTD42*%
G04:AMPARAMS|DCode=43|XSize=30mil|YSize=30mil|CornerRadius=7.5mil|HoleSize=0mil|Usage=FLASHONLY|Rotation=0.000|XOffset=0mil|YOffset=0mil|HoleType=Round|Shape=RoundedRectangle|*
%AMROUNDEDRECTD43*
21,1,0.03000,0.01500,0,0,0.0*
21,1,0.01500,0.03000,0,0,0.0*
1,1,0.01500,0.00750,-0.00750*
1,1,0.01500,-0.00750,-0.00750*
1,1,0.01500,-0.00750,0.00750*
1,1,0.01500,0.00750,0.00750*
%
%ADD43ROUNDEDRECTD43*%
%ADD44R,0.12598X0.07087*%
%ADD45R,0.05906X0.02362*%
%ADD46R,0.11811X0.04724*%
%ADD73C,0.06000*%
%ADD74C,0.02000*%
%ADD75C,0.15748*%
%ADD76C,0.07087*%
%ADD77R,0.07087X0.07087*%
%ADD78R,0.07087X0.07087*%
%ADD79C,0.02200*%
G36*
X463896Y426957D02*
Y426957D01*
X463896Y426957D01*
X464538Y426873D01*
X465505Y426472D01*
X466335Y425835D01*
X466972Y425005D01*
X467373Y424038D01*
X467498Y423087D01*
X467480Y423000D01*
X467480Y228500D01*
X467538Y228210D01*
X467403Y227186D01*
X466896Y225962D01*
X466089Y224911D01*
X465038Y224104D01*
X463814Y223597D01*
X463328Y223533D01*
Y223533D01*
X463317Y223520D01*
X409699Y223520D01*
X409624Y223622D01*
X409511Y224020D01*
X410581Y225090D01*
X410913Y225586D01*
X411029Y226172D01*
Y238367D01*
X414634Y241971D01*
X418000D01*
X418585Y242087D01*
X419081Y242419D01*
X424081Y247419D01*
X424413Y247915D01*
X424529Y248500D01*
Y251867D01*
X427138Y254475D01*
X427750D01*
X428238Y254573D01*
X428651Y254849D01*
X428928Y255262D01*
X429025Y255750D01*
Y257250D01*
X428970Y257525D01*
X429430Y257772D01*
X430646Y256556D01*
Y248959D01*
X429489D01*
Y242841D01*
X433639D01*
Y248959D01*
X432481D01*
Y256936D01*
X432412Y257287D01*
X432213Y257585D01*
X429149Y260649D01*
X428851Y260848D01*
X428500Y260918D01*
X417845D01*
X417406Y261356D01*
X416818Y261600D01*
X416182D01*
X415594Y261356D01*
X415144Y260906D01*
X414900Y260318D01*
Y259682D01*
X415144Y259094D01*
X415594Y258644D01*
X416182Y258400D01*
X416818D01*
X417406Y258644D01*
X417845Y259082D01*
X427786D01*
X427829Y259011D01*
X427818Y258947D01*
X427537Y258524D01*
X426250D01*
X425762Y258428D01*
X425349Y258151D01*
X425072Y257738D01*
X424975Y257250D01*
Y256638D01*
X421919Y253581D01*
X421587Y253085D01*
X421471Y252500D01*
Y249133D01*
X417367Y245029D01*
X414000D01*
X413415Y244913D01*
X412919Y244581D01*
X408419Y240081D01*
X408087Y239585D01*
X407971Y239000D01*
Y226805D01*
X407695Y226529D01*
X399350D01*
X399301Y227029D01*
X399460Y227061D01*
X399807Y227293D01*
X400039Y227640D01*
X400121Y228050D01*
Y229950D01*
X400039Y230360D01*
X399807Y230707D01*
X399460Y230939D01*
X399418Y230947D01*
Y232379D01*
X399450D01*
X399860Y232461D01*
X400207Y232693D01*
X400439Y233040D01*
X400521Y233450D01*
Y234550D01*
X400439Y234960D01*
X400207Y235307D01*
X399860Y235539D01*
X399450Y235621D01*
X397550D01*
X397140Y235539D01*
X396793Y235307D01*
X396561Y234960D01*
X396479Y234550D01*
Y233450D01*
X396561Y233040D01*
X396793Y232693D01*
X397140Y232461D01*
X397550Y232379D01*
X397582D01*
Y230947D01*
X397540Y230939D01*
X397193Y230707D01*
X396961Y230360D01*
X396879Y229950D01*
Y229918D01*
X395621D01*
Y229950D01*
X395539Y230360D01*
X395307Y230707D01*
X394960Y230939D01*
X394550Y231021D01*
X393450D01*
X393040Y230939D01*
X392693Y230707D01*
X392461Y230360D01*
X392379Y229950D01*
Y228050D01*
X392461Y227640D01*
X392693Y227293D01*
X393040Y227061D01*
X393199Y227029D01*
X393150Y226529D01*
X392233D01*
X389621Y229142D01*
Y229950D01*
X389539Y230360D01*
X389390Y230582D01*
X389547Y231002D01*
X389612Y231082D01*
X390600D01*
X390951Y231152D01*
X391249Y231351D01*
X392277Y232379D01*
X393950D01*
X394360Y232461D01*
X394707Y232693D01*
X394939Y233040D01*
X395021Y233450D01*
Y234550D01*
X394939Y234960D01*
X394707Y235307D01*
X394360Y235539D01*
X393950Y235621D01*
X392050D01*
X391640Y235539D01*
X391293Y235307D01*
X391061Y234960D01*
X390979Y234550D01*
Y233677D01*
X390355Y233052D01*
X389840Y233074D01*
X389521Y233450D01*
Y234323D01*
X392641Y237444D01*
X392840Y237741D01*
X392910Y238093D01*
Y238379D01*
X393950D01*
X394360Y238461D01*
X394707Y238693D01*
X394939Y239040D01*
X395021Y239450D01*
Y240550D01*
X394939Y240960D01*
X394707Y241307D01*
X394360Y241539D01*
X393950Y241621D01*
X392277D01*
X388249Y245649D01*
X387951Y245848D01*
X387600Y245918D01*
X380880D01*
X378429Y248368D01*
Y253119D01*
X378891Y253311D01*
X384351Y247851D01*
X384649Y247652D01*
X385000Y247582D01*
X398966D01*
Y247050D01*
X399101Y246367D01*
X399488Y245788D01*
X400067Y245402D01*
X400750Y245266D01*
X403250D01*
X403933Y245402D01*
X404512Y245788D01*
X404899Y246367D01*
X405034Y247050D01*
Y249950D01*
X404961Y250319D01*
X405330Y250533D01*
X405582Y250333D01*
Y244880D01*
X403351Y242649D01*
X403152Y242351D01*
X403082Y242000D01*
Y241621D01*
X403050D01*
X402640Y241539D01*
X402293Y241307D01*
X402061Y240960D01*
X402053Y240918D01*
X400447D01*
X400439Y240960D01*
X400207Y241307D01*
X399860Y241539D01*
X399450Y241621D01*
X397550D01*
X397140Y241539D01*
X396793Y241307D01*
X396561Y240960D01*
X396479Y240550D01*
Y239450D01*
X396561Y239040D01*
X396793Y238693D01*
X397140Y238461D01*
X397550Y238379D01*
X399450D01*
X399860Y238461D01*
X400207Y238693D01*
X400439Y239040D01*
X400447Y239082D01*
X402053D01*
X402061Y239040D01*
X402293Y238693D01*
X402640Y238461D01*
X403050Y238379D01*
X404950D01*
X405360Y238461D01*
X405707Y238693D01*
X405939Y239040D01*
X406021Y239450D01*
Y240550D01*
X405939Y240960D01*
X405707Y241307D01*
X405470Y241465D01*
X405352Y241890D01*
X405349Y242051D01*
X407149Y243851D01*
X407348Y244149D01*
X407418Y244500D01*
Y251000D01*
X407348Y251351D01*
X407149Y251649D01*
X404418Y254380D01*
Y262500D01*
X404348Y262851D01*
X404149Y263149D01*
X403480Y263818D01*
X403183Y264016D01*
X402831Y264086D01*
X394074D01*
X393723Y264016D01*
X393425Y263818D01*
X393363Y263756D01*
X390172D01*
X389924Y264256D01*
X390100Y264682D01*
Y265318D01*
X389856Y265906D01*
X389769Y265994D01*
X390015Y266455D01*
X390046Y266448D01*
X395112D01*
X395463Y266518D01*
X395559Y266582D01*
X397500D01*
X397851Y266652D01*
X398149Y266851D01*
X401461Y270164D01*
X401660Y270461D01*
X401730Y270813D01*
Y271015D01*
X401960Y271061D01*
X402307Y271293D01*
X402539Y271640D01*
X402621Y272050D01*
Y273950D01*
X402539Y274360D01*
X402307Y274707D01*
X401960Y274939D01*
X401918Y274947D01*
Y276053D01*
X401960Y276061D01*
X402307Y276293D01*
X402539Y276640D01*
X402621Y277050D01*
Y278802D01*
X403644Y279825D01*
X404186D01*
X404774Y280069D01*
X405224Y280519D01*
X405468Y281107D01*
Y281744D01*
X405224Y282332D01*
X405103Y282453D01*
X405310Y282953D01*
X440523D01*
Y282189D01*
X447429D01*
Y285551D01*
X440523D01*
Y284788D01*
X404350D01*
X404158Y285250D01*
X406782Y287874D01*
X440523D01*
Y287110D01*
X447429D01*
Y290473D01*
X440523D01*
Y289709D01*
X406402D01*
X406051Y289639D01*
X405754Y289440D01*
X395600Y279287D01*
X395100Y279494D01*
Y279818D01*
X394856Y280406D01*
X394406Y280856D01*
X393818Y281100D01*
X393182D01*
X392594Y280856D01*
X392144Y280406D01*
X391900Y279818D01*
Y279198D01*
X391470Y278767D01*
X391046Y279050D01*
X391100Y279182D01*
Y279818D01*
X390856Y280406D01*
X390406Y280856D01*
X389818Y281100D01*
X389182D01*
X388869Y280970D01*
X388811Y281009D01*
X388460Y281079D01*
X385407D01*
X385159Y281128D01*
X382463D01*
X382179Y281072D01*
X381939Y280911D01*
X381778Y280671D01*
X381722Y280388D01*
Y279935D01*
X381778Y279652D01*
X381939Y279411D01*
Y279337D01*
X381778Y279096D01*
X381722Y278813D01*
Y278360D01*
X381778Y278077D01*
X381920Y277799D01*
X381778Y277522D01*
X381722Y277238D01*
Y276785D01*
X381778Y276502D01*
X381920Y276224D01*
X381778Y275947D01*
X381722Y275663D01*
Y275211D01*
X381778Y274927D01*
X381939Y274687D01*
Y274612D01*
X381778Y274372D01*
X381722Y274089D01*
Y273636D01*
X381778Y273352D01*
X381920Y273075D01*
X381778Y272797D01*
X381722Y272514D01*
Y272061D01*
X381778Y271778D01*
X381920Y271500D01*
X381778Y271222D01*
X381722Y270939D01*
Y270486D01*
X381778Y270203D01*
X381920Y269925D01*
X381778Y269648D01*
X381722Y269364D01*
Y268911D01*
X381778Y268628D01*
X381939Y268388D01*
Y268313D01*
X381778Y268073D01*
X381722Y267789D01*
Y267337D01*
X381778Y267053D01*
X381920Y266776D01*
X381778Y266498D01*
X381722Y266215D01*
Y265762D01*
X381778Y265478D01*
X381920Y265201D01*
X381778Y264923D01*
X381722Y264640D01*
Y264187D01*
X381758Y264006D01*
X381676Y263811D01*
X381403Y263715D01*
X381055Y263743D01*
X378657Y266141D01*
X378903Y266602D01*
X379000Y266582D01*
X379351Y266652D01*
X379649Y266851D01*
X379848Y267149D01*
X379918Y267500D01*
X379848Y267851D01*
X379649Y268149D01*
X375649Y272149D01*
X375351Y272348D01*
X375000Y272418D01*
X374869D01*
X374677Y272880D01*
X375880Y274082D01*
X379000D01*
X379351Y274152D01*
X379649Y274351D01*
X379848Y274649D01*
X379918Y275000D01*
X379848Y275351D01*
X379649Y275649D01*
X379351Y275848D01*
X379000Y275918D01*
X375922D01*
X375715Y276418D01*
X376649Y277351D01*
X376848Y277649D01*
X376918Y278000D01*
X376848Y278351D01*
X376649Y278649D01*
X376351Y278848D01*
X376000Y278918D01*
X375649Y278848D01*
X375351Y278649D01*
X371351Y274649D01*
X371152Y274351D01*
X370610Y274188D01*
X369418Y275380D01*
Y278000D01*
X369348Y278351D01*
X369149Y278649D01*
X368851Y278848D01*
X368500Y278918D01*
X368149Y278848D01*
X367851Y278649D01*
X367652Y278351D01*
X367582Y278000D01*
Y277869D01*
X367120Y277677D01*
X364243Y280555D01*
X364215Y280903D01*
X364312Y281176D01*
X364506Y281258D01*
X364687Y281222D01*
X365140D01*
X365423Y281278D01*
X365663Y281439D01*
X365738D01*
X365978Y281278D01*
X366262Y281222D01*
X366715D01*
X366998Y281278D01*
X367238Y281439D01*
X367313D01*
X367553Y281278D01*
X367837Y281222D01*
X368289D01*
X368573Y281278D01*
X368813Y281439D01*
X368888D01*
X369128Y281278D01*
X369411Y281222D01*
X369864D01*
X370148Y281278D01*
X370388Y281439D01*
X370463D01*
X370703Y281278D01*
X370986Y281222D01*
X371439D01*
X371722Y281278D01*
X371963Y281439D01*
X372037D01*
X372278Y281278D01*
X372561Y281222D01*
X373014D01*
X373297Y281278D01*
X373537Y281439D01*
X373612D01*
X373852Y281278D01*
X374136Y281222D01*
X374589D01*
X374872Y281278D01*
X375112Y281439D01*
X375187D01*
X375427Y281278D01*
X375711Y281222D01*
X376163D01*
X376447Y281278D01*
X376687Y281439D01*
X376762D01*
X377002Y281278D01*
X377285Y281222D01*
X377738D01*
X378022Y281278D01*
X378262Y281439D01*
X378337D01*
X378577Y281278D01*
X378860Y281222D01*
X379313D01*
X379596Y281278D01*
X379837Y281439D01*
X379911D01*
X380152Y281278D01*
X380435Y281222D01*
X380888D01*
X381171Y281278D01*
X381412Y281439D01*
X381572Y281679D01*
X381628Y281963D01*
Y283347D01*
X381632Y283364D01*
Y285334D01*
X386149Y289851D01*
X386348Y290149D01*
X386418Y290500D01*
Y291155D01*
X386856Y291594D01*
X387100Y292182D01*
Y292818D01*
X386856Y293406D01*
X386406Y293856D01*
X385818Y294100D01*
X385182D01*
X385042Y294042D01*
X384597Y294324D01*
X384576Y294606D01*
X384889Y294918D01*
X384974Y294979D01*
X386050D01*
X386460Y295061D01*
X386807Y295293D01*
X387039Y295640D01*
X387121Y296050D01*
Y297950D01*
X387039Y298360D01*
X387025Y298381D01*
Y298959D01*
X387575Y299187D01*
X388025Y299637D01*
X388269Y300225D01*
Y300862D01*
X388025Y301450D01*
X387575Y301900D01*
X387381Y301980D01*
X387480Y302480D01*
X422600D01*
X422990Y302558D01*
X423321Y302779D01*
X426421Y305879D01*
X427950D01*
X428360Y305961D01*
X428707Y306193D01*
X428939Y306540D01*
X429021Y306950D01*
Y308050D01*
X428939Y308460D01*
X428707Y308807D01*
X428360Y309039D01*
X428260Y309059D01*
Y310216D01*
X428921D01*
Y311480D01*
X431601D01*
X431793Y311193D01*
X432140Y310961D01*
X432550Y310879D01*
X434450D01*
X434860Y310961D01*
X435207Y311193D01*
X435439Y311540D01*
X435521Y311950D01*
Y313050D01*
X435439Y313460D01*
X435207Y313807D01*
X434860Y314039D01*
X434450Y314121D01*
X432550D01*
X432140Y314039D01*
X431793Y313807D01*
X431601Y313520D01*
X428921D01*
Y315547D01*
X427132D01*
X426941Y316009D01*
X428514Y317582D01*
X431553D01*
X431561Y317540D01*
X431793Y317193D01*
X432140Y316961D01*
X432550Y316879D01*
X434450D01*
X434860Y316961D01*
X435207Y317193D01*
X435439Y317540D01*
X435521Y317950D01*
Y319050D01*
X435516Y319072D01*
X435833Y319459D01*
X438000D01*
X438000Y319459D01*
X438383Y319617D01*
X447724Y328959D01*
X463000D01*
X463383Y329117D01*
X463541Y329500D01*
Y346500D01*
X463383Y346883D01*
X463383Y346883D01*
X460883Y349383D01*
X460500Y349541D01*
X460500Y349541D01*
X451724D01*
X450041Y351224D01*
Y411500D01*
X450041Y411500D01*
X449883Y411883D01*
X448383Y413383D01*
X448000Y413541D01*
X448000Y413541D01*
X434500D01*
X434117Y413383D01*
X433959Y413000D01*
Y408724D01*
X432776Y407541D01*
X397724D01*
X396541Y408724D01*
Y418000D01*
X396383Y418383D01*
X396383Y418383D01*
X395383Y419383D01*
X395000Y419541D01*
X395000Y419541D01*
X382000D01*
X381617Y419383D01*
X381459Y419000D01*
Y392000D01*
X381617Y391617D01*
X381617Y391617D01*
X382617Y390617D01*
X383000Y390459D01*
X383000Y390459D01*
X417959D01*
X417959Y352724D01*
X393776Y328541D01*
X392892D01*
X392541Y329000D01*
Y361500D01*
X392383Y361883D01*
X392000Y362041D01*
X375543D01*
X375444Y362541D01*
X375843Y362707D01*
X376293Y363157D01*
X376537Y363745D01*
Y363959D01*
X391000D01*
X391383Y364117D01*
X391541Y364500D01*
Y374500D01*
X391541Y374500D01*
X391383Y374883D01*
X389883Y376383D01*
X389500Y376541D01*
X389500Y376541D01*
X370724D01*
X359883Y387383D01*
X359500Y387541D01*
X359500Y387541D01*
X348224D01*
X325883Y409883D01*
X325500Y410041D01*
X325500Y410041D01*
X280500D01*
X280117Y409883D01*
X279959Y409500D01*
Y402060D01*
X280000Y401960D01*
Y401853D01*
X280059Y401711D01*
Y401182D01*
X280119Y401036D01*
X280150Y400881D01*
X280272Y400699D01*
X280317Y400668D01*
X280339Y400617D01*
X280485Y400557D01*
X280616Y400469D01*
X280670Y400480D01*
X280721Y400459D01*
X314276D01*
X328096Y386638D01*
X331145Y382828D01*
X330771Y382494D01*
X326383Y386883D01*
X326000Y387041D01*
X326000Y387041D01*
X306500Y387041D01*
X306117Y386883D01*
X306094Y386825D01*
X305939Y386502D01*
X305500Y386541D01*
X281054D01*
X280962Y386579D01*
X280862Y386538D01*
X280755D01*
X280293Y386347D01*
X280217Y386271D01*
X280117Y386229D01*
X280076Y386130D01*
X280000Y386054D01*
Y385946D01*
X279959Y385847D01*
Y371918D01*
X275538D01*
X275186Y371848D01*
X274889Y371649D01*
X273735Y370496D01*
X272063D01*
X271653Y370414D01*
X271306Y370182D01*
X271074Y369835D01*
X270992Y369425D01*
Y368325D01*
X271074Y367915D01*
X271306Y367568D01*
X271653Y367336D01*
X272063Y367254D01*
X273963D01*
X274082Y367278D01*
X274582Y366921D01*
Y365742D01*
X273371Y364531D01*
X273347Y364496D01*
X272063D01*
X271653Y364414D01*
X271306Y364182D01*
X271074Y363835D01*
X270992Y363425D01*
Y362325D01*
X271074Y361915D01*
X271306Y361568D01*
X271653Y361336D01*
X272063Y361254D01*
X272089D01*
Y358621D01*
X272050D01*
X271640Y358539D01*
X271293Y358307D01*
X271061Y357960D01*
X270979Y357550D01*
Y356450D01*
X271061Y356040D01*
X271293Y355693D01*
X271640Y355461D01*
X272050Y355379D01*
X273950D01*
X274360Y355461D01*
X274707Y355693D01*
X274939Y356040D01*
X275021Y356450D01*
Y357550D01*
X274939Y357960D01*
X274707Y358307D01*
X274360Y358539D01*
X273950Y358621D01*
X273924D01*
Y361254D01*
X273963D01*
X274372Y361336D01*
X274720Y361568D01*
X274952Y361915D01*
X275033Y362325D01*
Y363425D01*
X275005Y363569D01*
X276149Y364714D01*
X276323Y364975D01*
X276389Y365026D01*
X276689Y365133D01*
X276881Y365017D01*
X276837Y364457D01*
X276594Y364356D01*
X276144Y363906D01*
X275900Y363318D01*
Y362682D01*
X276144Y362094D01*
X276594Y361644D01*
X277182Y361400D01*
X277818D01*
X278406Y361644D01*
X278845Y362082D01*
X284974D01*
X285705Y361351D01*
X286002Y361152D01*
X286459Y361000D01*
Y357108D01*
X286173D01*
Y354927D01*
X286459D01*
Y339418D01*
X278500D01*
X278149Y339348D01*
X277851Y339149D01*
X275223Y336521D01*
X273550D01*
X273140Y336439D01*
X272793Y336207D01*
X272561Y335860D01*
X272479Y335450D01*
Y334350D01*
X272561Y333940D01*
X272793Y333593D01*
X273140Y333361D01*
X273550Y333279D01*
X275450D01*
X275860Y333361D01*
X276207Y333593D01*
X276439Y333940D01*
X276521Y334350D01*
Y335223D01*
X278880Y337582D01*
X286459D01*
Y335918D01*
X284174D01*
X283971Y336221D01*
X283640Y336442D01*
X283250Y336520D01*
X281750D01*
X281360Y336442D01*
X281029Y336221D01*
X280808Y335890D01*
X280730Y335500D01*
Y335379D01*
X280462D01*
X280111Y335310D01*
X279813Y335111D01*
X275223Y330521D01*
X273550D01*
X273140Y330439D01*
X272793Y330207D01*
X272561Y329860D01*
X272479Y329450D01*
Y328350D01*
X272561Y327940D01*
X272793Y327593D01*
X273140Y327361D01*
X273550Y327279D01*
X273582D01*
Y325621D01*
X273550D01*
X273140Y325539D01*
X272793Y325307D01*
X272561Y324960D01*
X272479Y324550D01*
Y323450D01*
X272561Y323040D01*
X272793Y322693D01*
X273140Y322461D01*
X273550Y322379D01*
X275450D01*
X275860Y322461D01*
X276207Y322693D01*
X276439Y323040D01*
X276521Y323450D01*
Y324550D01*
X276439Y324960D01*
X276207Y325307D01*
X275860Y325539D01*
X275450Y325621D01*
X275418D01*
Y327279D01*
X275450D01*
X275860Y327361D01*
X276207Y327593D01*
X276439Y327940D01*
X276521Y328350D01*
Y329223D01*
X280842Y333544D01*
X281430D01*
X281750Y333480D01*
X283250D01*
X283640Y333558D01*
X283971Y333779D01*
X284174Y334082D01*
X288114D01*
Y331169D01*
X289588D01*
X290411Y330346D01*
X290400Y330318D01*
Y329682D01*
X290644Y329094D01*
X290696Y329041D01*
X290489Y328541D01*
X287000D01*
X287000Y328541D01*
X286617Y328383D01*
X286117Y327883D01*
X285959Y327500D01*
X285959Y327500D01*
Y323508D01*
X285673D01*
Y321327D01*
X285959D01*
Y307000D01*
X286117Y306617D01*
X286500Y306459D01*
X399000D01*
X399000Y306459D01*
X399383Y306617D01*
X399383Y306617D01*
X410979Y318214D01*
X411479Y318007D01*
Y317450D01*
X411561Y317040D01*
X411793Y316693D01*
X412140Y316461D01*
X412550Y316379D01*
X414223D01*
X416604Y313998D01*
X416902Y313800D01*
X417253Y313730D01*
X418079D01*
Y310216D01*
X418462D01*
Y308521D01*
X418450D01*
X418040Y308439D01*
X417693Y308207D01*
X417461Y307860D01*
X417379Y307450D01*
Y305550D01*
X417461Y305140D01*
X417542Y305020D01*
X417274Y304520D01*
X353500D01*
X353110Y304442D01*
X352779Y304221D01*
X342779Y294221D01*
X342558Y293890D01*
X342480Y293500D01*
Y292399D01*
X342193Y292207D01*
X341961Y291860D01*
X341879Y291450D01*
Y289550D01*
X341961Y289140D01*
X342193Y288793D01*
X342540Y288561D01*
X342950Y288479D01*
X344050D01*
X344460Y288561D01*
X344807Y288793D01*
X345351Y288707D01*
X355576Y278482D01*
X355385Y278020D01*
X354922D01*
X347721Y285221D01*
X347390Y285442D01*
X347000Y285520D01*
X345107D01*
X345039Y285860D01*
X344807Y286207D01*
X344460Y286439D01*
X344050Y286521D01*
X342950D01*
X342540Y286439D01*
X342193Y286207D01*
X341961Y285860D01*
X341879Y285450D01*
Y284642D01*
X340833Y283596D01*
X340631Y283294D01*
X339866Y282529D01*
X330100D01*
X329515Y282413D01*
X329019Y282081D01*
X326458Y279521D01*
X326450D01*
X326040Y279439D01*
X325693Y279207D01*
X325461Y278860D01*
X325379Y278450D01*
Y276550D01*
X325461Y276140D01*
X325471Y276126D01*
Y273374D01*
X325461Y273360D01*
X325379Y272950D01*
Y271050D01*
X325461Y270640D01*
X325471Y270626D01*
Y267374D01*
X325461Y267360D01*
X325379Y266950D01*
Y265050D01*
X325461Y264640D01*
X325471Y264626D01*
Y261529D01*
X322926D01*
X322807Y261707D01*
X322460Y261939D01*
X322050Y262021D01*
X320950D01*
X320540Y261939D01*
X320193Y261707D01*
X319961Y261360D01*
X319879Y260950D01*
Y259050D01*
X319961Y258640D01*
X319971Y258626D01*
Y255374D01*
X319961Y255360D01*
X319879Y254950D01*
Y253050D01*
X319961Y252640D01*
X320193Y252293D01*
X320540Y252061D01*
X320950Y251979D01*
X320958D01*
X324471Y248466D01*
Y237350D01*
X323971Y237301D01*
X323939Y237460D01*
X323707Y237807D01*
X323360Y238039D01*
X322950Y238121D01*
X321050D01*
X320640Y238039D01*
X320293Y237807D01*
X320061Y237460D01*
X320053Y237418D01*
X318447D01*
X318439Y237460D01*
X318207Y237807D01*
X317860Y238039D01*
X317450Y238121D01*
X316165D01*
X316142Y238156D01*
X314918Y239380D01*
Y243600D01*
X314848Y243951D01*
X314649Y244249D01*
X311621Y247277D01*
Y248950D01*
X311539Y249360D01*
X311307Y249707D01*
X310960Y249939D01*
X310550Y250021D01*
X309450D01*
X309040Y249939D01*
X308693Y249707D01*
X308461Y249360D01*
X308379Y248950D01*
Y247050D01*
X308461Y246640D01*
X308693Y246293D01*
X309040Y246061D01*
X309450Y245979D01*
X310323D01*
X313082Y243220D01*
Y239000D01*
X313152Y238649D01*
X313351Y238351D01*
X314508Y237194D01*
X314479Y237050D01*
Y235950D01*
X314561Y235540D01*
X314793Y235193D01*
X315140Y234961D01*
X315550Y234879D01*
X317450D01*
X317860Y234961D01*
X318207Y235193D01*
X318439Y235540D01*
X318447Y235582D01*
X319616D01*
X319700Y235442D01*
X319452Y234883D01*
X319243Y234841D01*
X318747Y234510D01*
X316358Y232121D01*
X315550D01*
X315140Y232039D01*
X315126Y232029D01*
X311874D01*
X311860Y232039D01*
X311450Y232121D01*
X310642D01*
X308253Y234510D01*
X307757Y234841D01*
X307548Y234883D01*
X307300Y235442D01*
X307384Y235582D01*
X308553D01*
X308561Y235540D01*
X308793Y235193D01*
X309140Y234961D01*
X309550Y234879D01*
X311450D01*
X311860Y234961D01*
X312207Y235193D01*
X312439Y235540D01*
X312521Y235950D01*
Y237050D01*
X312439Y237460D01*
X312207Y237807D01*
X311860Y238039D01*
X311450Y238121D01*
X311168D01*
Y240200D01*
X311307Y240293D01*
X311539Y240640D01*
X311621Y241050D01*
Y242950D01*
X311539Y243360D01*
X311307Y243707D01*
X310960Y243939D01*
X310550Y244021D01*
X309450D01*
X309040Y243939D01*
X308693Y243707D01*
X308461Y243360D01*
X308379Y242950D01*
Y241050D01*
X308461Y240640D01*
X308693Y240293D01*
X309040Y240061D01*
X309332Y240003D01*
Y238077D01*
X309140Y238039D01*
X308793Y237807D01*
X308561Y237460D01*
X308553Y237418D01*
X306947D01*
X306939Y237460D01*
X306707Y237807D01*
X306360Y238039D01*
X305950Y238121D01*
X304050D01*
X303640Y238039D01*
X303293Y237807D01*
X303061Y237460D01*
X303055Y237429D01*
X302512Y237265D01*
X301406Y238371D01*
Y240358D01*
X288595D01*
Y236209D01*
X299243D01*
X300287Y235164D01*
X300374Y234729D01*
X300705Y234233D01*
X302591Y232347D01*
X303087Y232015D01*
X303672Y231899D01*
X306538D01*
X308479Y229958D01*
Y229950D01*
X308561Y229540D01*
X308793Y229193D01*
X309140Y228961D01*
X309550Y228879D01*
X311450D01*
X311860Y228961D01*
X311874Y228971D01*
X315126D01*
X315140Y228961D01*
X315550Y228879D01*
X317450D01*
X317860Y228961D01*
X318207Y229193D01*
X318439Y229540D01*
X318521Y229950D01*
Y229958D01*
X320462Y231899D01*
X323328D01*
X323913Y232015D01*
X324409Y232347D01*
X327081Y235019D01*
X327413Y235516D01*
X327529Y236101D01*
Y249100D01*
X327413Y249685D01*
X327081Y250181D01*
X323121Y254142D01*
Y254950D01*
X323039Y255360D01*
X323029Y255374D01*
Y258471D01*
X325574D01*
X325693Y258293D01*
X326040Y258061D01*
X326450Y257979D01*
X326458D01*
X329019Y255419D01*
X329515Y255087D01*
X330100Y254971D01*
X334866D01*
X335471Y254366D01*
Y253400D01*
X335587Y252815D01*
X335879Y252377D01*
Y251550D01*
X335961Y251140D01*
X335971Y251126D01*
Y248374D01*
X335961Y248360D01*
X335879Y247950D01*
Y246050D01*
X335961Y245640D01*
X335971Y245626D01*
Y244000D01*
X336087Y243415D01*
X336419Y242919D01*
X337971Y241367D01*
Y230000D01*
X338087Y229415D01*
X338419Y228919D01*
X343356Y223981D01*
X343164Y223520D01*
X272637Y223520D01*
X272616Y223543D01*
Y223543D01*
X272616Y223543D01*
X272092Y223612D01*
X271246Y223962D01*
X270520Y224520D01*
X269962Y225246D01*
X269612Y226092D01*
X269506Y226893D01*
X269543Y227384D01*
X269543Y227384D01*
X269520Y227858D01*
X269520Y227971D01*
X269520Y419368D01*
X269544Y419390D01*
X269544D01*
X269620Y420167D01*
X270107Y421770D01*
X270896Y423247D01*
X271959Y424541D01*
X273253Y425604D01*
X274730Y426393D01*
X276333Y426880D01*
X277110Y426956D01*
Y426956D01*
X277132Y426980D01*
X463875D01*
X463896Y426957D01*
D02*
G37*
G36*
X348000Y387000D02*
X359500D01*
X370500Y376000D01*
X389500D01*
X391000Y374500D01*
Y364500D01*
X376488D01*
X376293Y364969D01*
X375843Y365419D01*
X375255Y365663D01*
X374635D01*
X374404Y365894D01*
Y366949D01*
X374386Y367038D01*
Y370082D01*
X377082D01*
Y367435D01*
X377152Y367084D01*
X377351Y366786D01*
X377649Y366587D01*
X378000Y366517D01*
X378351Y366587D01*
X378649Y366786D01*
X378848Y367084D01*
X378918Y367435D01*
Y370500D01*
X378848Y370851D01*
X378649Y371149D01*
X378149Y371649D01*
X377851Y371848D01*
X377500Y371918D01*
X361300D01*
X360949Y371848D01*
X360651Y371649D01*
X359982Y370980D01*
X359784Y370683D01*
X359714Y370331D01*
Y369011D01*
X359512Y368810D01*
X351893D01*
X351541Y368740D01*
X351541Y368740D01*
X351041Y369007D01*
Y377000D01*
X351041Y377000D01*
X351000Y377099D01*
Y378000D01*
X350500Y378500D01*
X335500D01*
X332500Y382000D01*
X328500Y387000D01*
X314500Y401000D01*
X280721D01*
X280600Y401182D01*
Y401818D01*
X280500Y402060D01*
Y409500D01*
X325500D01*
X348000Y387000D01*
D02*
G37*
G36*
X334500Y378000D02*
X335000Y377500D01*
X350000D01*
X350500Y377000D01*
Y367798D01*
X347202Y364500D01*
X334885D01*
X334716Y364906D01*
X334266Y365356D01*
X333678Y365600D01*
X333058D01*
X332886Y365772D01*
Y370082D01*
X333834D01*
X335582Y368334D01*
Y367435D01*
X335652Y367084D01*
X335851Y366786D01*
X336149Y366587D01*
X336500Y366517D01*
X336851Y366587D01*
X337149Y366786D01*
X337348Y367084D01*
X337418Y367435D01*
Y368714D01*
X337348Y369065D01*
X337149Y369363D01*
X334863Y371649D01*
X334565Y371848D01*
X334214Y371918D01*
X320500D01*
X320207Y371859D01*
X320149Y371848D01*
X319851Y371649D01*
X319289Y371086D01*
X319090Y370789D01*
X319020Y370437D01*
Y370069D01*
X318951Y370000D01*
X310041D01*
Y377500D01*
X310000Y377600D01*
Y378000D01*
X309599D01*
X309500Y378041D01*
X306959D01*
X306500Y378500D01*
Y386500D01*
X326000Y386500D01*
X334500Y378000D01*
D02*
G37*
G36*
X281000Y386000D02*
X305500D01*
Y378000D01*
X306000Y377500D01*
X309500D01*
Y368298D01*
X305702Y364500D01*
X294000D01*
X293000Y365500D01*
Y370000D01*
X293466Y370082D01*
X293889D01*
X294021Y369951D01*
Y367496D01*
X294090Y367145D01*
X294289Y366848D01*
X294351Y366786D01*
X294649Y366587D01*
X295000Y366517D01*
X295351Y366587D01*
X295649Y366786D01*
X295848Y367084D01*
X295918Y367435D01*
X295856Y367746D01*
Y370331D01*
X295786Y370683D01*
X295587Y370980D01*
X294918Y371649D01*
X294621Y371848D01*
X294269Y371918D01*
X280500D01*
Y385847D01*
X280962Y386038D01*
X281000Y386000D01*
D02*
G37*
G36*
X364758Y370033D02*
X364936Y369582D01*
X364808Y369390D01*
X364758Y369141D01*
X364723D01*
X364372Y369071D01*
X364074Y368872D01*
X360182Y364980D01*
X359984Y364683D01*
X359947Y364500D01*
X351500D01*
X351000Y365000D01*
Y365702D01*
X352273Y366975D01*
X359893D01*
X360244Y367045D01*
X360542Y367244D01*
X361149Y367851D01*
X361280Y367983D01*
X361479Y368280D01*
X361549Y368631D01*
Y369951D01*
X361680Y370082D01*
X364715D01*
X364758Y370033D01*
D02*
G37*
G36*
X309500Y328541D02*
X293511Y328541D01*
X293304Y329041D01*
X293356Y329094D01*
X293600Y329682D01*
Y330318D01*
X293356Y330906D01*
X292906Y331356D01*
X292318Y331600D01*
X291753D01*
X290886Y332467D01*
Y336500D01*
X288114D01*
Y335918D01*
X287000D01*
Y337582D01*
X292120D01*
X293096Y336606D01*
Y334320D01*
X293166Y333969D01*
X293365Y333672D01*
X293851Y333186D01*
X294149Y332987D01*
X294500Y332917D01*
X294851Y332987D01*
X295149Y333186D01*
X295348Y333484D01*
X295418Y333835D01*
X295348Y334186D01*
X295149Y334484D01*
X294932Y334701D01*
Y336986D01*
X294862Y337337D01*
X294663Y337635D01*
X293149Y339149D01*
X292851Y339348D01*
X292500Y339418D01*
X287000D01*
Y361000D01*
X307376D01*
X307755Y360843D01*
X308391D01*
X308770Y361000D01*
X309500D01*
Y328541D01*
D02*
G37*
G36*
X392000Y329000D02*
X377636D01*
X377381Y329381D01*
Y330018D01*
X377137Y330606D01*
X376687Y331056D01*
X376099Y331300D01*
X375604D01*
X374386Y332518D01*
Y336551D01*
X374873Y336582D01*
X376120D01*
X376596Y336106D01*
Y334372D01*
X376666Y334020D01*
X376865Y333723D01*
X377351Y333237D01*
X377649Y333038D01*
X378000Y332968D01*
X378351Y333038D01*
X378649Y333237D01*
X378848Y333535D01*
X378918Y333886D01*
X378848Y334237D01*
X378649Y334535D01*
X378432Y334752D01*
Y336486D01*
X378362Y336837D01*
X378163Y337135D01*
X377149Y338149D01*
X376851Y338348D01*
X376500Y338418D01*
X369500D01*
Y361500D01*
X392000D01*
Y329000D01*
D02*
G37*
G36*
X350500D02*
X335859D01*
X335525Y329500D01*
X335600Y329682D01*
Y330318D01*
X335356Y330906D01*
X334906Y331356D01*
X334318Y331600D01*
X333753D01*
X332886Y332467D01*
Y336500D01*
X330114D01*
Y335918D01*
X328000D01*
Y337646D01*
X332671D01*
X335582Y334734D01*
Y333835D01*
X335652Y333484D01*
X335851Y333186D01*
X336149Y332987D01*
X336500Y332917D01*
X336851Y332987D01*
X337149Y333186D01*
X337348Y333484D01*
X337418Y333835D01*
Y335114D01*
X337348Y335465D01*
X337149Y335763D01*
X333700Y339212D01*
X333402Y339411D01*
X333051Y339481D01*
X328000D01*
Y361082D01*
X346000D01*
X346351Y361152D01*
X346649Y361351D01*
X346798Y361500D01*
X350500D01*
Y329000D01*
D02*
G37*
G36*
X396000Y418000D02*
Y408500D01*
X397500Y407000D01*
X433000D01*
X434500Y408500D01*
Y413000D01*
X448000D01*
X449500Y411500D01*
Y351000D01*
X451500Y349000D01*
X460500D01*
X463000Y346500D01*
Y329500D01*
X447500D01*
X438000Y320000D01*
X434918D01*
X434860Y320039D01*
X434450Y320121D01*
X432550D01*
X432140Y320039D01*
X432082Y320000D01*
X421500D01*
Y326500D01*
X418000D01*
Y325060D01*
X417900Y324818D01*
Y324182D01*
X418000Y323940D01*
Y321000D01*
X417000Y320000D01*
X412000D01*
X399000Y307000D01*
X286500D01*
Y327500D01*
X287000Y328000D01*
X317088Y328000D01*
X317293Y327693D01*
X317640Y327461D01*
X318050Y327379D01*
X318082D01*
Y325121D01*
X318050D01*
X317640Y325039D01*
X317293Y324807D01*
X317061Y324460D01*
X316979Y324050D01*
Y322950D01*
X317061Y322540D01*
X317293Y322193D01*
X317640Y321961D01*
X318050Y321879D01*
X319950D01*
X320360Y321961D01*
X320707Y322193D01*
X320939Y322540D01*
X321021Y322950D01*
Y324050D01*
X320939Y324460D01*
X320707Y324807D01*
X320360Y325039D01*
X319950Y325121D01*
X319918D01*
Y327379D01*
X319950D01*
X320360Y327461D01*
X320707Y327693D01*
X320912Y328000D01*
X324102D01*
X324152Y327500D01*
X323860Y327442D01*
X323529Y327221D01*
X323308Y326890D01*
X323237Y326535D01*
X322851Y326149D01*
X322652Y325851D01*
X322582Y325500D01*
Y321880D01*
X319823Y319121D01*
X318050D01*
X317640Y319039D01*
X317293Y318807D01*
X317061Y318460D01*
X316979Y318050D01*
Y316950D01*
X317061Y316540D01*
X317082Y316508D01*
Y315345D01*
X316644Y314906D01*
X316400Y314318D01*
Y313682D01*
X316644Y313094D01*
X317094Y312644D01*
X317682Y312400D01*
X318318D01*
X318906Y312644D01*
X319356Y313094D01*
X319600Y313682D01*
Y314318D01*
X319356Y314906D01*
X318918Y315345D01*
Y315879D01*
X319950D01*
X320360Y315961D01*
X320707Y316193D01*
X320939Y316540D01*
X321021Y316950D01*
Y317723D01*
X324149Y320851D01*
X324348Y321149D01*
X324418Y321500D01*
Y324480D01*
X325750D01*
X326140Y324558D01*
X326471Y324779D01*
X326692Y325110D01*
X326770Y325500D01*
Y326500D01*
X326692Y326890D01*
X326471Y327221D01*
X326140Y327442D01*
X325848Y327500D01*
X325898Y328000D01*
X358588Y328000D01*
X358793Y327693D01*
X359140Y327461D01*
X359550Y327379D01*
X359582D01*
Y325121D01*
X359550D01*
X359140Y325039D01*
X358793Y324807D01*
X358561Y324460D01*
X358479Y324050D01*
Y322950D01*
X358561Y322540D01*
X358793Y322193D01*
X359140Y321961D01*
X359550Y321879D01*
X361450D01*
X361860Y321961D01*
X362207Y322193D01*
X362439Y322540D01*
X362521Y322950D01*
Y324050D01*
X362439Y324460D01*
X362207Y324807D01*
X361860Y325039D01*
X361450Y325121D01*
X361418D01*
Y327379D01*
X361450D01*
X361860Y327461D01*
X362207Y327693D01*
X362412Y328000D01*
X365602D01*
X365651Y327500D01*
X365360Y327442D01*
X365029Y327221D01*
X364808Y326890D01*
X364730Y326500D01*
Y325500D01*
X364808Y325110D01*
X365029Y324779D01*
X365176Y324681D01*
X365287Y324165D01*
X365269Y324066D01*
X360323Y319121D01*
X359550D01*
X359140Y319039D01*
X358793Y318807D01*
X358561Y318460D01*
X358479Y318050D01*
Y316950D01*
X358561Y316540D01*
X358793Y316193D01*
X359140Y315961D01*
X359550Y315879D01*
X359667D01*
Y314804D01*
X359313Y314450D01*
X359069Y313862D01*
Y313225D01*
X359313Y312637D01*
X359763Y312187D01*
X360351Y311943D01*
X360987D01*
X361575Y312187D01*
X362025Y312637D01*
X362269Y313225D01*
Y313862D01*
X362025Y314450D01*
X361575Y314900D01*
X361502Y314930D01*
Y315890D01*
X361860Y315961D01*
X362207Y316193D01*
X362439Y316540D01*
X362521Y316950D01*
Y318050D01*
X362439Y318460D01*
X362366Y318569D01*
X367149Y323351D01*
X367348Y323649D01*
X367418Y324000D01*
Y324514D01*
X367640Y324558D01*
X367971Y324779D01*
X368192Y325110D01*
X368270Y325500D01*
Y326500D01*
X368192Y326890D01*
X367971Y327221D01*
X367640Y327442D01*
X367349Y327500D01*
X367398Y328000D01*
X394000Y328000D01*
X418500Y352500D01*
X418500Y391000D01*
X383000D01*
X382000Y392000D01*
Y419000D01*
X395000D01*
X396000Y418000D01*
D02*
G37*
G36*
X419111Y322469D02*
X419409Y322270D01*
X419760Y322200D01*
X420111Y322270D01*
X420409Y322469D01*
X420459Y322544D01*
X420959Y322393D01*
Y320000D01*
X421117Y319617D01*
X421500Y319459D01*
X427088D01*
X427295Y318959D01*
X423883Y315547D01*
X421819D01*
Y315547D01*
X421441D01*
Y315547D01*
X419067D01*
X418979Y315565D01*
X417633D01*
X415521Y317677D01*
Y318550D01*
X415439Y318960D01*
X415707Y319459D01*
X417000D01*
X417383Y319617D01*
X417383Y319617D01*
X418383Y320617D01*
X418541Y321000D01*
X418541Y321000D01*
Y322422D01*
X419041Y322574D01*
X419111Y322469D01*
D02*
G37*
G36*
X385957Y301980D02*
X385763Y301900D01*
X385313Y301450D01*
X385069Y300862D01*
Y300225D01*
X385234Y299828D01*
X385190Y299607D01*
Y299021D01*
X384950D01*
X384540Y298939D01*
X384193Y298707D01*
X383961Y298360D01*
X383879Y297950D01*
Y296665D01*
X383844Y296641D01*
X382851Y295649D01*
X382652Y295351D01*
X382582Y295000D01*
Y293887D01*
X382082Y293680D01*
X381906Y293856D01*
X381318Y294100D01*
X380682D01*
X380310Y293946D01*
X379826Y294217D01*
X379810Y294239D01*
Y294979D01*
X380050D01*
X380460Y295061D01*
X380807Y295293D01*
X381039Y295640D01*
X381121Y296050D01*
Y297950D01*
X381039Y298360D01*
X380807Y298707D01*
X380460Y298939D01*
X380050Y299021D01*
X378950D01*
X378540Y298939D01*
X378193Y298707D01*
X377961Y298360D01*
X377879Y297950D01*
Y296050D01*
X377961Y295640D01*
X377975Y295619D01*
Y294319D01*
X376002Y292346D01*
X375578Y292629D01*
X375600Y292682D01*
Y293318D01*
X375356Y293906D01*
X374906Y294356D01*
X374609Y294479D01*
X374709Y294979D01*
X375550D01*
X375960Y295061D01*
X376307Y295293D01*
X376539Y295640D01*
X376621Y296050D01*
Y297950D01*
X376539Y298360D01*
X376307Y298707D01*
X376288Y298900D01*
X376525Y299137D01*
X376769Y299725D01*
Y300362D01*
X376525Y300950D01*
X376075Y301400D01*
X375487Y301643D01*
X374851D01*
X374263Y301400D01*
X373813Y300950D01*
X373569Y300362D01*
Y299725D01*
X373813Y299137D01*
X373776Y298762D01*
X373693Y298707D01*
X373461Y298360D01*
X373379Y297950D01*
Y297918D01*
X372500D01*
X372149Y297848D01*
X371851Y297649D01*
X371121Y296918D01*
X370621Y297125D01*
Y297950D01*
X370539Y298360D01*
X370307Y298707D01*
X369960Y298939D01*
X369550Y299021D01*
X368450D01*
X368040Y298939D01*
X367693Y298707D01*
X367461Y298360D01*
X367379Y297950D01*
Y297918D01*
X367000D01*
X366649Y297848D01*
X366351Y297649D01*
X365351Y296649D01*
X365152Y296351D01*
X365121Y296192D01*
X364621Y296241D01*
Y297950D01*
X364539Y298360D01*
X364307Y298707D01*
X363960Y298939D01*
X363550Y299021D01*
X362450D01*
X362040Y298939D01*
X361693Y298707D01*
X361461Y298360D01*
X361379Y297950D01*
Y296277D01*
X359096Y293993D01*
X359077D01*
X358906Y294164D01*
X358318Y294408D01*
X357682D01*
X357094Y294164D01*
X356644Y293714D01*
X356400Y293126D01*
Y292490D01*
X356644Y291901D01*
X357082Y291463D01*
Y289469D01*
X357152Y289118D01*
X357351Y288820D01*
X357630Y288541D01*
X357594Y288356D01*
X357144Y287906D01*
X356900Y287318D01*
Y286682D01*
X356954Y286550D01*
X356530Y286267D01*
X355418Y287380D01*
Y294120D01*
X356306Y295008D01*
X356450Y294979D01*
X357550D01*
X357960Y295061D01*
X358307Y295293D01*
X358539Y295640D01*
X358621Y296050D01*
Y297950D01*
X358539Y298360D01*
X358307Y298707D01*
X357960Y298939D01*
X357550Y299021D01*
X356450D01*
X356040Y298939D01*
X355693Y298707D01*
X355461Y298360D01*
X355379Y297950D01*
Y296677D01*
X353851Y295149D01*
X353652Y294851D01*
X353582Y294500D01*
Y287000D01*
X353652Y286649D01*
X353851Y286351D01*
X356851Y283351D01*
X357149Y283152D01*
X357500Y283082D01*
X362372D01*
Y281963D01*
X362428Y281679D01*
X362495Y281579D01*
X362314Y281126D01*
X362273Y281079D01*
X360189D01*
X359838Y281009D01*
X359540Y280810D01*
X359341Y280513D01*
X359271Y280161D01*
X359282Y280106D01*
X358922Y279606D01*
X357336D01*
X346170Y290771D01*
X345840Y290992D01*
X345450Y291070D01*
X345121D01*
Y291450D01*
X345039Y291860D01*
X344807Y292207D01*
X344520Y292399D01*
Y293078D01*
X353922Y302480D01*
X385858D01*
X385957Y301980D01*
D02*
G37*
G36*
X351434Y278624D02*
X351115Y278236D01*
X350947Y278348D01*
X350596Y278418D01*
X345121D01*
Y278450D01*
X345039Y278860D01*
X344807Y279207D01*
X344460Y279439D01*
X344050Y279521D01*
X342950D01*
X342540Y279439D01*
X342193Y279207D01*
X341961Y278860D01*
X341879Y278450D01*
Y276550D01*
X341961Y276140D01*
X342193Y275793D01*
X342540Y275561D01*
X342950Y275479D01*
X344050D01*
X344460Y275561D01*
X344807Y275793D01*
X345039Y276140D01*
X345121Y276550D01*
Y276582D01*
X350216D01*
X351519Y275280D01*
X351312Y274780D01*
X350362D01*
X350011Y274710D01*
X349713Y274511D01*
X348120Y272918D01*
X345121D01*
Y272950D01*
X345039Y273360D01*
X344807Y273707D01*
X344460Y273939D01*
X344050Y274021D01*
X342950D01*
X342540Y273939D01*
X342193Y273707D01*
X341961Y273360D01*
X341879Y272950D01*
Y271050D01*
X341961Y270640D01*
X342193Y270293D01*
X342540Y270061D01*
X342950Y269979D01*
X344050D01*
X344460Y270061D01*
X344807Y270293D01*
X345039Y270640D01*
X345121Y271050D01*
Y271082D01*
X348500D01*
X348851Y271152D01*
X349149Y271351D01*
X349333Y271535D01*
X349681Y271368D01*
X349784Y271280D01*
Y270682D01*
X350028Y270094D01*
X350478Y269644D01*
X351066Y269400D01*
X351574D01*
X351799Y269019D01*
X351819Y268938D01*
X351780Y268899D01*
X351536Y268311D01*
Y267674D01*
X351780Y267086D01*
X352230Y266636D01*
X352818Y266392D01*
X352913D01*
X353180Y265893D01*
X353152Y265851D01*
X353082Y265500D01*
Y264887D01*
X352582Y264680D01*
X352406Y264856D01*
X351818Y265100D01*
X351198D01*
X350149Y266149D01*
X349851Y266348D01*
X349500Y266418D01*
X346380D01*
X346149Y266649D01*
X345851Y266848D01*
X345500Y266918D01*
X345121D01*
Y266950D01*
X345039Y267360D01*
X344807Y267707D01*
X344460Y267939D01*
X344050Y268021D01*
X342950D01*
X342540Y267939D01*
X342193Y267707D01*
X341961Y267360D01*
X341879Y266950D01*
Y265050D01*
X341961Y264640D01*
X342193Y264293D01*
X342540Y264061D01*
X342950Y263979D01*
X344050D01*
X344460Y264061D01*
X344807Y264293D01*
X344965Y264530D01*
X345017Y264573D01*
X345376Y264685D01*
X345563Y264710D01*
X345649Y264652D01*
X346000Y264582D01*
X349120D01*
X349900Y263802D01*
Y263182D01*
X350144Y262594D01*
X350594Y262144D01*
X351182Y261900D01*
X351818D01*
X352406Y262144D01*
X352582Y262320D01*
X353082Y262112D01*
Y256380D01*
X350120Y253418D01*
X345121D01*
Y253450D01*
X345039Y253860D01*
X344807Y254207D01*
X344460Y254439D01*
X344050Y254521D01*
X342950D01*
X342540Y254439D01*
X342193Y254207D01*
X341961Y253860D01*
X341879Y253450D01*
Y251550D01*
X341961Y251140D01*
X342193Y250793D01*
X342540Y250561D01*
X342582Y250553D01*
Y248947D01*
X342540Y248939D01*
X342193Y248707D01*
X341961Y248360D01*
X341879Y247950D01*
Y246050D01*
X341961Y245640D01*
X342193Y245293D01*
X342540Y245061D01*
X342950Y244979D01*
X344050D01*
X344460Y245061D01*
X344807Y245293D01*
X345039Y245640D01*
X345121Y246050D01*
Y247950D01*
X345039Y248360D01*
X344807Y248707D01*
X344460Y248939D01*
X344418Y248947D01*
Y250553D01*
X344460Y250561D01*
X344807Y250793D01*
X345039Y251140D01*
X345121Y251550D01*
Y251582D01*
X350500D01*
X350851Y251652D01*
X351149Y251851D01*
X354649Y255351D01*
X354848Y255649D01*
X354918Y256000D01*
Y262675D01*
X355418Y263009D01*
X355682Y262900D01*
X356318D01*
X356906Y263144D01*
X357356Y263594D01*
X357600Y264182D01*
Y264818D01*
X357887Y264894D01*
X358118Y264813D01*
X358129Y264786D01*
X358100Y264640D01*
Y264187D01*
X358156Y263904D01*
X358317Y263663D01*
Y263589D01*
X358156Y263348D01*
X358100Y263065D01*
Y262612D01*
X358156Y262329D01*
X358317Y262088D01*
X358557Y261928D01*
X358841Y261872D01*
X361537D01*
X361821Y261928D01*
X362061Y262088D01*
X362222Y262329D01*
X362278Y262612D01*
Y263065D01*
X362222Y263348D01*
X362061Y263589D01*
Y263663D01*
X362222Y263904D01*
X362278Y264187D01*
Y264640D01*
X362222Y264923D01*
X362080Y265201D01*
X362222Y265478D01*
X362278Y265762D01*
Y266215D01*
X362222Y266498D01*
X362080Y266776D01*
X362222Y267053D01*
X362278Y267337D01*
Y267789D01*
X362222Y268073D01*
X362061Y268313D01*
Y268388D01*
X362222Y268628D01*
X362278Y268911D01*
Y269364D01*
X362222Y269648D01*
X362080Y269925D01*
X362222Y270203D01*
X362278Y270486D01*
Y270939D01*
X362222Y271222D01*
X362080Y271500D01*
X362222Y271778D01*
X362278Y272061D01*
Y272514D01*
X362222Y272797D01*
X362080Y273075D01*
X362222Y273352D01*
X362278Y273636D01*
Y274089D01*
X362222Y274372D01*
X362061Y274612D01*
Y274687D01*
X362222Y274927D01*
X362278Y275211D01*
Y275663D01*
X362222Y275947D01*
X362080Y276224D01*
X362222Y276502D01*
X362278Y276785D01*
Y277238D01*
X362222Y277522D01*
X362080Y277799D01*
X362222Y278077D01*
X362278Y278360D01*
Y278813D01*
X362526Y279080D01*
X363114Y279088D01*
X365843Y276359D01*
X365597Y275898D01*
X365500Y275918D01*
X365149Y275848D01*
X364851Y275649D01*
X364652Y275351D01*
X364582Y275000D01*
X364652Y274649D01*
X364851Y274351D01*
X368351Y270851D01*
X368649Y270652D01*
X369000Y270582D01*
X369131D01*
X369323Y270120D01*
X367620Y268418D01*
X366000D01*
X365649Y268348D01*
X365351Y268149D01*
X365152Y267851D01*
X365082Y267500D01*
X365152Y267149D01*
X365351Y266851D01*
X365649Y266652D01*
X366000Y266582D01*
X368000D01*
X368351Y266652D01*
X368649Y266851D01*
X372000Y270202D01*
X379589Y262614D01*
X379580Y262026D01*
X379313Y261778D01*
X378860D01*
X378577Y261722D01*
X378337Y261561D01*
X378262D01*
X378022Y261722D01*
X377738Y261778D01*
X377285D01*
X377002Y261722D01*
X376762Y261561D01*
X376687D01*
X376447Y261722D01*
X376163Y261778D01*
X375711D01*
X375427Y261722D01*
X375187Y261561D01*
X375112D01*
X374872Y261722D01*
X374589Y261778D01*
X374136D01*
X373852Y261722D01*
X373612Y261561D01*
X373537D01*
X373297Y261722D01*
X373014Y261778D01*
X372561D01*
X372278Y261722D01*
X372037Y261561D01*
X371963D01*
X371722Y261722D01*
X371439Y261778D01*
X370986D01*
X370703Y261722D01*
X370463Y261561D01*
X370388D01*
X370148Y261722D01*
X369864Y261778D01*
X369411D01*
X369128Y261722D01*
X368888Y261561D01*
X368813D01*
X368573Y261722D01*
X368289Y261778D01*
X367837D01*
X367553Y261722D01*
X367313Y261561D01*
X367238D01*
X366998Y261722D01*
X366715Y261778D01*
X366262D01*
X365978Y261722D01*
X365738Y261561D01*
X365663D01*
X365423Y261722D01*
X365140Y261778D01*
X364687D01*
X364404Y261722D01*
X364163Y261561D01*
X364089D01*
X363848Y261722D01*
X363565Y261778D01*
X363112D01*
X362829Y261722D01*
X362589Y261561D01*
X362428Y261321D01*
X362372Y261037D01*
Y258898D01*
X348351Y244877D01*
X348152Y244580D01*
X348082Y244228D01*
Y241621D01*
X348050D01*
X347640Y241539D01*
X347293Y241307D01*
X347061Y240960D01*
X347053Y240918D01*
X345947D01*
X345939Y240960D01*
X345707Y241307D01*
X345360Y241539D01*
X344950Y241621D01*
X343050D01*
X342640Y241539D01*
X342293Y241307D01*
X342061Y240960D01*
X341979Y240550D01*
Y239450D01*
X342061Y239040D01*
X342293Y238693D01*
X342640Y238461D01*
X343050Y238379D01*
X344950D01*
X345360Y238461D01*
X345707Y238693D01*
X345939Y239040D01*
X345947Y239082D01*
X347053D01*
X347061Y239040D01*
X347293Y238693D01*
X347640Y238461D01*
X348050Y238379D01*
X349950D01*
X350360Y238461D01*
X350707Y238693D01*
X350939Y239040D01*
X351021Y239450D01*
Y240550D01*
X350939Y240960D01*
X350707Y241307D01*
X350360Y241539D01*
X349950Y241621D01*
X349918D01*
Y243848D01*
X363496Y257426D01*
X363976Y257227D01*
X363996Y257199D01*
Y256294D01*
X352851Y245149D01*
X352652Y244851D01*
X352582Y244500D01*
Y241500D01*
X352293Y241307D01*
X352061Y240960D01*
X351979Y240550D01*
Y239450D01*
X352061Y239040D01*
X352293Y238693D01*
X352640Y238461D01*
X353050Y238379D01*
X354950D01*
X355360Y238461D01*
X355707Y238693D01*
X355939Y239040D01*
X356021Y239450D01*
Y240550D01*
X355939Y240960D01*
X355707Y241307D01*
X355360Y241539D01*
X354950Y241621D01*
X354418D01*
Y244120D01*
X365071Y254773D01*
X365571Y254566D01*
Y253368D01*
X358351Y246149D01*
X358152Y245851D01*
X358082Y245500D01*
Y241621D01*
X358050D01*
X357640Y241539D01*
X357293Y241307D01*
X357061Y240960D01*
X356979Y240550D01*
Y239450D01*
X357061Y239040D01*
X357293Y238693D01*
X357640Y238461D01*
X357988Y238392D01*
X358041Y238050D01*
X358037Y237885D01*
X355951Y235800D01*
X355752Y235502D01*
X355360Y235539D01*
X354950Y235621D01*
X353050D01*
X352640Y235539D01*
X352293Y235307D01*
X352061Y234960D01*
X351979Y234550D01*
Y233450D01*
X352008Y233306D01*
X351133Y232431D01*
X350745Y232750D01*
X350939Y233040D01*
X351021Y233450D01*
Y234550D01*
X350939Y234960D01*
X350707Y235307D01*
X350360Y235539D01*
X349950Y235621D01*
X348050D01*
X347640Y235539D01*
X347293Y235307D01*
X347061Y234960D01*
X346979Y234550D01*
Y233450D01*
X347061Y233040D01*
X347293Y232693D01*
X347640Y232461D01*
X347832Y232423D01*
Y231497D01*
X347540Y231439D01*
X347193Y231207D01*
X346961Y230860D01*
X346879Y230450D01*
Y228550D01*
X346961Y228140D01*
X347193Y227793D01*
X347540Y227561D01*
X347950Y227479D01*
X349050D01*
X349460Y227561D01*
X349807Y227793D01*
X350039Y228140D01*
X350082Y228358D01*
X350582Y228309D01*
Y227069D01*
X350652Y226717D01*
X350711Y226629D01*
X350454Y226129D01*
X345533D01*
X341029Y230633D01*
Y242000D01*
X340913Y242585D01*
X340581Y243081D01*
X339029Y244634D01*
Y245626D01*
X339039Y245640D01*
X339121Y246050D01*
Y247950D01*
X339039Y248360D01*
X339029Y248374D01*
Y251126D01*
X339039Y251140D01*
X339121Y251550D01*
Y253450D01*
X339039Y253860D01*
X338807Y254207D01*
X338529Y254393D01*
Y255000D01*
X338413Y255585D01*
X338081Y256081D01*
X336630Y257533D01*
X336639Y257589D01*
X336950Y257979D01*
X338050D01*
X338460Y258061D01*
X338807Y258293D01*
X339039Y258640D01*
X339121Y259050D01*
Y260950D01*
X339039Y261360D01*
X338807Y261707D01*
X338460Y261939D01*
X338050Y262021D01*
X336950D01*
X336540Y261939D01*
X336193Y261707D01*
X335961Y261360D01*
X335879Y260950D01*
Y260918D01*
X334621D01*
Y260950D01*
X334539Y261360D01*
X334307Y261707D01*
X333960Y261939D01*
X333550Y262021D01*
X332450D01*
X332040Y261939D01*
X331693Y261707D01*
X331461Y261360D01*
X331379Y260950D01*
Y259050D01*
X331461Y258640D01*
X331535Y258529D01*
X331268Y258029D01*
X330733D01*
X328621Y260142D01*
Y260950D01*
X328539Y261360D01*
X328529Y261374D01*
Y264626D01*
X328539Y264640D01*
X328621Y265050D01*
Y266950D01*
X328539Y267360D01*
X328529Y267374D01*
Y270626D01*
X328539Y270640D01*
X328621Y271050D01*
Y272950D01*
X328539Y273360D01*
X328529Y273374D01*
Y276126D01*
X328539Y276140D01*
X328621Y276550D01*
Y277358D01*
X330733Y279471D01*
X331268D01*
X331535Y278971D01*
X331461Y278860D01*
X331379Y278450D01*
Y276550D01*
X331461Y276140D01*
X331693Y275793D01*
X332040Y275561D01*
X332450Y275479D01*
X333550D01*
X333960Y275561D01*
X334307Y275793D01*
X334539Y276140D01*
X334621Y276550D01*
Y276582D01*
X335879D01*
Y276550D01*
X335961Y276140D01*
X336193Y275793D01*
X336540Y275561D01*
X336950Y275479D01*
X338050D01*
X338460Y275561D01*
X338807Y275793D01*
X339039Y276140D01*
X339121Y276550D01*
Y278450D01*
X339039Y278860D01*
X338965Y278971D01*
X339232Y279471D01*
X340500D01*
X341085Y279587D01*
X341581Y279919D01*
X342996Y281333D01*
X343197Y281634D01*
X344042Y282479D01*
X344050D01*
X344460Y282561D01*
X344807Y282793D01*
X345039Y283140D01*
X345107Y283480D01*
X346578D01*
X351434Y278624D01*
D02*
G37*
G36*
X399244Y262109D02*
X399439Y261751D01*
X399379Y261450D01*
Y259727D01*
X397752Y258100D01*
X397182D01*
X396594Y257856D01*
X396144Y257406D01*
X395900Y256818D01*
Y256182D01*
X396144Y255594D01*
X396594Y255144D01*
X397182Y254900D01*
X397818D01*
X398406Y255144D01*
X398856Y255594D01*
X398879Y255649D01*
X399379Y255550D01*
Y254550D01*
X399461Y254140D01*
X399582Y253959D01*
Y251274D01*
X399488Y251212D01*
X399101Y250633D01*
X398966Y249950D01*
Y249418D01*
X385380D01*
X379918Y254880D01*
Y256201D01*
X379934Y256226D01*
X380004Y256577D01*
Y258092D01*
X380054Y258341D01*
Y258457D01*
X380554Y258793D01*
X380661Y258771D01*
X381013Y258841D01*
X381310Y259040D01*
X381509Y259338D01*
X381579Y259689D01*
Y261773D01*
X381626Y261814D01*
X382079Y261995D01*
X382179Y261928D01*
X382463Y261872D01*
X385159D01*
X385407Y261921D01*
X393744D01*
X394095Y261991D01*
X394392Y262190D01*
X394454Y262251D01*
X399121D01*
X399244Y262109D01*
D02*
G37*
G36*
X369128Y257656D02*
X369411Y257600D01*
X369864D01*
X370295Y257199D01*
Y241621D01*
X369550D01*
X369140Y241539D01*
X368793Y241307D01*
X368561Y240960D01*
X368553Y240918D01*
X367447D01*
X367439Y240960D01*
X367207Y241307D01*
X366860Y241539D01*
X366450Y241621D01*
X364550D01*
X364140Y241539D01*
X363793Y241307D01*
X363561Y240960D01*
X363479Y240550D01*
Y239450D01*
X363497Y239360D01*
X363059Y239000D01*
X362818Y239100D01*
X362182D01*
X361594Y238856D01*
X361144Y238406D01*
X360900Y237818D01*
Y237182D01*
X361144Y236594D01*
X361594Y236144D01*
X361914Y236011D01*
X361920Y235981D01*
X362119Y235683D01*
X363479Y234323D01*
Y233450D01*
X363561Y233040D01*
X363793Y232693D01*
X364140Y232461D01*
X364550Y232379D01*
X366450D01*
X366860Y232461D01*
X367207Y232693D01*
X367439Y233040D01*
X367521Y233450D01*
Y234550D01*
X367439Y234960D01*
X367207Y235307D01*
X366860Y235539D01*
X366450Y235621D01*
X364777D01*
X363830Y236567D01*
X363856Y236594D01*
X364100Y237182D01*
Y237818D01*
X364035Y237976D01*
X364396Y238410D01*
X364550Y238379D01*
X366450D01*
X366860Y238461D01*
X367207Y238693D01*
X367439Y239040D01*
X367447Y239082D01*
X368553D01*
X368561Y239040D01*
X368793Y238693D01*
X369140Y238461D01*
X369550Y238379D01*
X371450D01*
X371860Y238461D01*
X372207Y238693D01*
X372439Y239040D01*
X372521Y239450D01*
Y240550D01*
X372515Y240581D01*
X372975Y240827D01*
X373479Y240323D01*
Y239450D01*
X373561Y239040D01*
X373793Y238693D01*
X374140Y238461D01*
X374550Y238379D01*
X375835D01*
X375858Y238344D01*
X378575Y235627D01*
Y234981D01*
X378561Y234960D01*
X378479Y234550D01*
Y233450D01*
X378486Y233418D01*
X378435Y233332D01*
X377910Y233199D01*
X377521Y233589D01*
Y234550D01*
X377439Y234960D01*
X377207Y235307D01*
X376860Y235539D01*
X376450Y235621D01*
X374550D01*
X374140Y235539D01*
X373793Y235307D01*
X373561Y234960D01*
X373479Y234550D01*
Y233450D01*
X373561Y233040D01*
X373793Y232693D01*
X374140Y232461D01*
X374550Y232379D01*
X376134D01*
X376809Y231705D01*
X376783Y231248D01*
X376362Y230959D01*
X376050Y231021D01*
X374950D01*
X374540Y230939D01*
X374193Y230707D01*
X373961Y230360D01*
X373879Y229950D01*
Y229918D01*
X372621D01*
Y229950D01*
X372539Y230360D01*
X372307Y230707D01*
X371960Y230939D01*
X371668Y230997D01*
Y232423D01*
X371860Y232461D01*
X372207Y232693D01*
X372439Y233040D01*
X372521Y233450D01*
Y234550D01*
X372439Y234960D01*
X372207Y235307D01*
X371860Y235539D01*
X371450Y235621D01*
X369550D01*
X369140Y235539D01*
X368793Y235307D01*
X368561Y234960D01*
X368479Y234550D01*
Y233450D01*
X368561Y233040D01*
X368793Y232693D01*
X369140Y232461D01*
X369550Y232379D01*
X369832D01*
Y230800D01*
X369693Y230707D01*
X369461Y230360D01*
X369379Y229950D01*
Y228050D01*
X369386Y228018D01*
X368987Y227518D01*
X362366D01*
X362032Y228018D01*
X362100Y228182D01*
Y228818D01*
X361856Y229406D01*
X361406Y229856D01*
X360818Y230100D01*
X360182D01*
X359594Y229856D01*
X359144Y229406D01*
X358900Y228818D01*
Y228182D01*
X358968Y228018D01*
X358634Y227518D01*
X356224D01*
X355957Y228018D01*
X356039Y228140D01*
X356121Y228550D01*
Y229723D01*
X357249Y230851D01*
X357448Y231149D01*
X357518Y231500D01*
Y234770D01*
X359649Y236902D01*
X359848Y237199D01*
X359918Y237551D01*
Y238379D01*
X359950D01*
X360360Y238461D01*
X360707Y238693D01*
X360939Y239040D01*
X361021Y239450D01*
Y240550D01*
X360939Y240960D01*
X360707Y241307D01*
X360360Y241539D01*
X359950Y241621D01*
X359918D01*
Y245120D01*
X367137Y252339D01*
X367336Y252637D01*
X367406Y252988D01*
Y257199D01*
X367837Y257600D01*
X368289D01*
X368573Y257656D01*
X368813Y257817D01*
X368888D01*
X369128Y257656D01*
D02*
G37*
%LPC*%
G36*
X284750Y361020D02*
X283250D01*
X282860Y360942D01*
X282529Y360721D01*
X282308Y360390D01*
X282230Y360000D01*
Y359224D01*
X275310Y352304D01*
X274707Y352307D01*
X274360Y352539D01*
X273950Y352621D01*
X272050D01*
X271640Y352539D01*
X271293Y352307D01*
X271061Y351960D01*
X270979Y351550D01*
Y350450D01*
X271061Y350040D01*
X271293Y349693D01*
X271640Y349461D01*
X272050Y349379D01*
X273950D01*
X274360Y349461D01*
X274707Y349693D01*
X274745Y349749D01*
X274855Y349728D01*
X275320D01*
X275543Y349504D01*
X275841Y349305D01*
X276192Y349236D01*
X278755D01*
X279194Y348797D01*
X279782Y348553D01*
X280418D01*
X281006Y348797D01*
X281456Y349247D01*
X281700Y349835D01*
Y350471D01*
X281456Y351060D01*
X281006Y351510D01*
X280418Y351753D01*
X279782D01*
X279194Y351510D01*
X278755Y351071D01*
X277326D01*
X277135Y351533D01*
X283582Y357980D01*
X284750D01*
X285140Y358058D01*
X285471Y358279D01*
X285692Y358610D01*
X285770Y359000D01*
Y360000D01*
X285692Y360390D01*
X285471Y360721D01*
X285140Y360942D01*
X284750Y361020D01*
D02*
G37*
G36*
X283250Y327520D02*
X281750D01*
X281360Y327442D01*
X281029Y327221D01*
X280808Y326890D01*
X280730Y326500D01*
Y325500D01*
X280805Y325124D01*
Y325103D01*
X279251Y323549D01*
X279251Y323549D01*
X278851Y323149D01*
X278851Y323149D01*
X275812Y320110D01*
X275613Y319812D01*
X275570Y319597D01*
X275450Y319621D01*
X273550D01*
X273140Y319539D01*
X272793Y319307D01*
X272561Y318960D01*
X272479Y318550D01*
Y317450D01*
X272561Y317040D01*
X272793Y316693D01*
X273140Y316461D01*
X273550Y316379D01*
X275450D01*
X275860Y316461D01*
X276207Y316693D01*
X276439Y317040D01*
X276521Y317450D01*
Y317940D01*
X276549Y317958D01*
X277110Y318520D01*
X277309Y318817D01*
X277357Y319059D01*
X279950Y321652D01*
X280244Y321594D01*
X280694Y321144D01*
X281282Y320900D01*
X281918D01*
X282506Y321144D01*
X282956Y321594D01*
X283200Y322182D01*
Y322818D01*
X282956Y323406D01*
X282506Y323856D01*
X282570Y324371D01*
X282571Y324372D01*
X282592Y324480D01*
X283250D01*
X283640Y324558D01*
X283971Y324779D01*
X284192Y325110D01*
X284270Y325500D01*
Y326500D01*
X284192Y326890D01*
X283971Y327221D01*
X283640Y327442D01*
X283250Y327520D01*
D02*
G37*
G36*
X427950Y303121D02*
X426050D01*
X425640Y303039D01*
X425293Y302807D01*
X425061Y302460D01*
X425052Y302418D01*
X424500D01*
X424149Y302348D01*
X423851Y302149D01*
X423302Y301600D01*
X422682D01*
X422094Y301356D01*
X421644Y300906D01*
X421400Y300318D01*
Y299682D01*
X421644Y299094D01*
X422094Y298644D01*
X422682Y298400D01*
X423318D01*
X423906Y298644D01*
X424356Y299094D01*
X424600Y299682D01*
Y299834D01*
X424822Y300031D01*
X425293Y300193D01*
X425640Y299961D01*
X426050Y299879D01*
X427950D01*
X428360Y299961D01*
X428707Y300193D01*
X428939Y300540D01*
X429021Y300950D01*
Y302050D01*
X428939Y302460D01*
X428707Y302807D01*
X428360Y303039D01*
X427950Y303121D01*
D02*
G37*
G36*
X461406Y298839D02*
X448595D01*
Y293114D01*
X461406D01*
Y298839D01*
D02*
G37*
G36*
X284870Y279335D02*
X274815D01*
Y272429D01*
X284870D01*
Y279335D01*
D02*
G37*
G36*
X416818Y274600D02*
X416182D01*
X415594Y274356D01*
X415144Y273906D01*
X414900Y273318D01*
Y272682D01*
X415144Y272094D01*
X415594Y271644D01*
X416182Y271400D01*
X416802D01*
X417851Y270351D01*
X418149Y270152D01*
X418500Y270082D01*
X440506D01*
Y269887D01*
X440523Y269799D01*
Y267871D01*
X440023Y267664D01*
X438538Y269149D01*
X438241Y269348D01*
X437889Y269418D01*
X417845D01*
X417406Y269856D01*
X416818Y270100D01*
X416182D01*
X415594Y269856D01*
X415144Y269406D01*
X414900Y268818D01*
Y268182D01*
X415144Y267594D01*
X415594Y267144D01*
X416182Y266900D01*
X416818D01*
X417406Y267144D01*
X417845Y267582D01*
X437509D01*
X440523Y264568D01*
Y262504D01*
X447429D01*
Y265866D01*
X441821D01*
X440762Y266925D01*
X440969Y267425D01*
X447429D01*
Y270788D01*
X442290D01*
X442271Y270883D01*
X442072Y271180D01*
X441604Y271649D01*
X441306Y271848D01*
X440955Y271918D01*
X418880D01*
X418100Y272698D01*
Y273318D01*
X417856Y273906D01*
X417406Y274356D01*
X416818Y274600D01*
D02*
G37*
G36*
X316050Y268021D02*
X314950D01*
X314540Y267939D01*
X314193Y267707D01*
X313961Y267360D01*
X313879Y266950D01*
Y265050D01*
X313961Y264640D01*
X314193Y264293D01*
X314540Y264061D01*
X314582Y264053D01*
Y261947D01*
X314540Y261939D01*
X314193Y261707D01*
X313961Y261360D01*
X313879Y260950D01*
Y260918D01*
X312121D01*
Y260950D01*
X312039Y261360D01*
X311807Y261707D01*
X311460Y261939D01*
X311050Y262021D01*
X309950D01*
X309540Y261939D01*
X309193Y261707D01*
X308961Y261360D01*
X308879Y260950D01*
Y259050D01*
X308961Y258640D01*
X309193Y258293D01*
X309540Y258061D01*
X309950Y257979D01*
X311050D01*
X311460Y258061D01*
X311807Y258293D01*
X312039Y258640D01*
X312121Y259050D01*
Y259082D01*
X313879D01*
Y259050D01*
X313961Y258640D01*
X314193Y258293D01*
X314540Y258061D01*
X314950Y257979D01*
X316050D01*
X316460Y258061D01*
X316807Y258293D01*
X317039Y258640D01*
X317121Y259050D01*
Y260950D01*
X317039Y261360D01*
X316807Y261707D01*
X316460Y261939D01*
X316418Y261947D01*
Y264053D01*
X316460Y264061D01*
X316807Y264293D01*
X317039Y264640D01*
X317121Y265050D01*
Y266950D01*
X317039Y267360D01*
X316807Y267707D01*
X316460Y267939D01*
X316050Y268021D01*
D02*
G37*
G36*
X301406Y263980D02*
X288595D01*
Y259831D01*
X301406D01*
Y260988D01*
X302533D01*
X302879Y260642D01*
Y259050D01*
X302961Y258640D01*
X303193Y258293D01*
X303540Y258061D01*
X303950Y257979D01*
X305050D01*
X305460Y258061D01*
X305807Y258293D01*
X306039Y258640D01*
X306121Y259050D01*
Y260950D01*
X306039Y261360D01*
X305807Y261707D01*
X305460Y261939D01*
X305050Y262021D01*
X304096D01*
X303562Y262554D01*
X303264Y262753D01*
X302913Y262823D01*
X301406D01*
Y263980D01*
D02*
G37*
G36*
X461406Y259862D02*
X448595D01*
Y254138D01*
X461406D01*
Y259862D01*
D02*
G37*
G36*
X301406Y258075D02*
X288595D01*
Y253925D01*
X301406D01*
Y255082D01*
X302879D01*
Y253550D01*
X302961Y253140D01*
X303193Y252793D01*
X303540Y252561D01*
X303950Y252479D01*
X305050D01*
X305460Y252561D01*
X305807Y252793D01*
X306039Y253140D01*
X306121Y253550D01*
Y255450D01*
X306039Y255860D01*
X305807Y256207D01*
X305460Y256439D01*
X305050Y256521D01*
X304096D01*
X303968Y256649D01*
X303670Y256848D01*
X303319Y256918D01*
X301406D01*
Y258075D01*
D02*
G37*
G36*
X311050Y256521D02*
X309950D01*
X309540Y256439D01*
X309193Y256207D01*
X308961Y255860D01*
X308879Y255450D01*
Y253550D01*
X308961Y253140D01*
X309193Y252793D01*
X309540Y252561D01*
X309950Y252479D01*
X311050D01*
X311460Y252561D01*
X311807Y252793D01*
X312039Y253140D01*
X312077Y253332D01*
X313879D01*
Y253050D01*
X313961Y252640D01*
X314193Y252293D01*
X314540Y252061D01*
X314582Y252053D01*
Y249947D01*
X314540Y249939D01*
X314193Y249707D01*
X313961Y249360D01*
X313879Y248950D01*
Y247050D01*
X313961Y246640D01*
X314193Y246293D01*
X314540Y246061D01*
X314950Y245979D01*
X316050D01*
X316460Y246061D01*
X316807Y246293D01*
X317039Y246640D01*
X317121Y247050D01*
Y248950D01*
X317039Y249360D01*
X316807Y249707D01*
X316460Y249939D01*
X316418Y249947D01*
Y252053D01*
X316460Y252061D01*
X316807Y252293D01*
X317039Y252640D01*
X317121Y253050D01*
Y254950D01*
X317039Y255360D01*
X316807Y255707D01*
X316460Y255939D01*
X316050Y256021D01*
X314950D01*
X314540Y255939D01*
X314193Y255707D01*
X313961Y255360D01*
X313923Y255168D01*
X312121D01*
Y255450D01*
X312039Y255860D01*
X311807Y256207D01*
X311460Y256439D01*
X311050Y256521D01*
D02*
G37*
G36*
X301406Y252169D02*
X288595D01*
Y248020D01*
X301406D01*
Y249029D01*
X301905Y249116D01*
X302379Y248642D01*
Y247050D01*
X302461Y246640D01*
X302693Y246293D01*
X303040Y246061D01*
X303450Y245979D01*
X304550D01*
X304960Y246061D01*
X305307Y246293D01*
X305539Y246640D01*
X305621Y247050D01*
Y248950D01*
X305539Y249360D01*
X305307Y249707D01*
X304960Y249939D01*
X304550Y250021D01*
X303596D01*
X302873Y250743D01*
X302575Y250942D01*
X302224Y251012D01*
X301406D01*
Y252169D01*
D02*
G37*
G36*
X416818Y266100D02*
X416182D01*
X415594Y265856D01*
X415144Y265406D01*
X414900Y264818D01*
Y264182D01*
X415144Y263594D01*
X415594Y263144D01*
X416182Y262900D01*
X416818D01*
X417406Y263144D01*
X417845Y263582D01*
X428620D01*
X435567Y256635D01*
Y248959D01*
X434410D01*
Y242841D01*
X438560D01*
Y248959D01*
X437403D01*
Y257015D01*
X437333Y257366D01*
X437134Y257664D01*
X429649Y265149D01*
X429351Y265348D01*
X429000Y265418D01*
X417845D01*
X417406Y265856D01*
X416818Y266100D01*
D02*
G37*
G36*
X441750Y259025D02*
X440250D01*
X439762Y258927D01*
X439349Y258651D01*
X439073Y258238D01*
X438975Y257750D01*
Y255250D01*
X439073Y254762D01*
X439349Y254349D01*
X439762Y254072D01*
X440250Y253976D01*
X441362D01*
X444798Y250539D01*
Y248959D01*
X444253D01*
Y242841D01*
X444798D01*
Y241805D01*
X444522Y241529D01*
X439270D01*
X439033Y241577D01*
X433391D01*
X433221Y241647D01*
X432584D01*
X431996Y241404D01*
X431546Y240953D01*
X431303Y240366D01*
Y239729D01*
X431546Y239141D01*
X431996Y238691D01*
X432584Y238447D01*
X433221D01*
X433391Y238518D01*
X438843D01*
X439080Y238471D01*
X445156D01*
X445741Y238587D01*
X446237Y238919D01*
X447409Y240090D01*
X447741Y240586D01*
X447857Y241172D01*
Y242841D01*
X448402D01*
Y248959D01*
X447857D01*
Y251172D01*
X447741Y251758D01*
X447409Y252254D01*
X443081Y256581D01*
X443024Y256620D01*
Y257750D01*
X442928Y258238D01*
X442651Y258651D01*
X442238Y258927D01*
X441750Y259025D01*
D02*
G37*
G36*
X301406Y246264D02*
X288595D01*
Y242114D01*
X301406D01*
Y243091D01*
X301905Y243197D01*
X302379Y242723D01*
Y241050D01*
X302461Y240640D01*
X302693Y240293D01*
X303040Y240061D01*
X303450Y239979D01*
X304550D01*
X304960Y240061D01*
X305307Y240293D01*
X305539Y240640D01*
X305621Y241050D01*
Y242950D01*
X305539Y243360D01*
X305307Y243707D01*
X304960Y243939D01*
X304550Y244021D01*
X303677D01*
X302860Y244838D01*
X302562Y245037D01*
X302211Y245107D01*
X301406D01*
Y246264D01*
D02*
G37*
G36*
X402488Y237930D02*
X401851D01*
X401263Y237687D01*
X400813Y237237D01*
X400570Y236649D01*
Y236012D01*
X400813Y235424D01*
X401263Y234974D01*
X401639Y234818D01*
X401789Y234595D01*
X401979Y234404D01*
Y233450D01*
X402061Y233040D01*
X402293Y232693D01*
X402640Y232461D01*
X403050Y232379D01*
X404950D01*
X405360Y232461D01*
X405707Y232693D01*
X405939Y233040D01*
X406021Y233450D01*
Y234550D01*
X405939Y234960D01*
X405707Y235307D01*
X405360Y235539D01*
X404950Y235621D01*
X404031D01*
X403770Y236012D01*
Y236649D01*
X403526Y237237D01*
X403076Y237687D01*
X402488Y237930D01*
D02*
G37*
G36*
X461761Y240921D02*
X452494D01*
Y230079D01*
X461761D01*
Y240921D01*
D02*
G37*
G36*
X425398D02*
X416130D01*
Y230079D01*
X425398D01*
Y240921D01*
D02*
G37*
G36*
X284870Y233665D02*
X274815D01*
Y226760D01*
X284870D01*
Y233665D01*
D02*
G37*
G36*
X339000Y323979D02*
X338086Y323859D01*
X337235Y323506D01*
X336504Y322945D01*
X335943Y322214D01*
X335590Y321362D01*
X335470Y320449D01*
X335590Y319535D01*
X335943Y318684D01*
X336504Y317953D01*
X338319Y316138D01*
X339050Y315577D01*
X339901Y315224D01*
X340815Y315104D01*
X343404D01*
X344004Y314504D01*
X344735Y313943D01*
X345586Y313590D01*
X346500Y313470D01*
X347414Y313590D01*
X348265Y313943D01*
X348996Y314504D01*
X349557Y315235D01*
X349910Y316086D01*
X350030Y317000D01*
X349910Y317914D01*
X349557Y318765D01*
X348996Y319496D01*
X347362Y321130D01*
X346631Y321691D01*
X345780Y322044D01*
X344866Y322164D01*
X342277D01*
X341496Y322945D01*
X340765Y323506D01*
X339914Y323859D01*
X339000Y323979D01*
D02*
G37*
G36*
X338050Y274021D02*
X336950D01*
X336540Y273939D01*
X336193Y273707D01*
X335961Y273360D01*
X335879Y272950D01*
Y272918D01*
X334621D01*
Y272950D01*
X334539Y273360D01*
X334307Y273707D01*
X333960Y273939D01*
X333550Y274021D01*
X332450D01*
X332040Y273939D01*
X331693Y273707D01*
X331461Y273360D01*
X331379Y272950D01*
Y271050D01*
X331461Y270640D01*
X331693Y270293D01*
X332040Y270061D01*
X332450Y269979D01*
X333550D01*
X333960Y270061D01*
X334307Y270293D01*
X334539Y270640D01*
X334621Y271050D01*
Y271082D01*
X335879D01*
Y271050D01*
X335961Y270640D01*
X336193Y270293D01*
X336540Y270061D01*
X336950Y269979D01*
X338050D01*
X338460Y270061D01*
X338807Y270293D01*
X339039Y270640D01*
X339121Y271050D01*
Y272950D01*
X339039Y273360D01*
X338807Y273707D01*
X338460Y273939D01*
X338050Y274021D01*
D02*
G37*
G36*
Y268021D02*
X336950D01*
X336540Y267939D01*
X336193Y267707D01*
X335961Y267360D01*
X335879Y266950D01*
Y266918D01*
X334621D01*
Y266950D01*
X334539Y267360D01*
X334307Y267707D01*
X333960Y267939D01*
X333550Y268021D01*
X332450D01*
X332040Y267939D01*
X331693Y267707D01*
X331461Y267360D01*
X331379Y266950D01*
Y265050D01*
X331461Y264640D01*
X331693Y264293D01*
X332040Y264061D01*
X332450Y263979D01*
X333550D01*
X333960Y264061D01*
X334307Y264293D01*
X334539Y264640D01*
X334621Y265050D01*
Y265082D01*
X335879D01*
Y265050D01*
X335961Y264640D01*
X336193Y264293D01*
X336540Y264061D01*
X336950Y263979D01*
X338050D01*
X338460Y264061D01*
X338807Y264293D01*
X339039Y264640D01*
X339121Y265050D01*
Y266950D01*
X339039Y267360D01*
X338807Y267707D01*
X338460Y267939D01*
X338050Y268021D01*
D02*
G37*
%LPD*%
D12*
X427240Y308096D02*
Y312882D01*
X347000Y284500D02*
X354500Y277000D01*
X359000D01*
X426644Y307500D02*
X427240Y308096D01*
X426600Y307500D02*
X426644D01*
X427622Y312500D02*
X433500D01*
X427240Y312882D02*
X427622Y312500D01*
X353500Y303500D02*
X422600D01*
X426600Y307500D01*
X343500Y293500D02*
X353500Y303500D01*
X343500Y290500D02*
Y293500D01*
X356913Y278587D02*
X360189D01*
X343500Y290500D02*
X343950Y290050D01*
X345450D01*
X356913Y278587D01*
X343500Y284500D02*
X347000D01*
D13*
X313557Y362443D02*
X316000Y360000D01*
X308073Y362443D02*
X313557D01*
X366500Y368600D02*
X372514D01*
X322563Y338563D02*
X333051D01*
X319700Y335700D02*
X322563Y338563D01*
X333051D02*
X336500Y335114D01*
X368500Y275000D02*
Y278000D01*
X372000Y274000D02*
X372750Y274750D01*
X368500Y275000D02*
X372000Y271500D01*
X363339Y280161D02*
X368500Y275000D01*
X372750Y274750D02*
X376000Y278000D01*
X372000Y271500D02*
Y274000D01*
Y271500D02*
X375000D01*
X379000Y267500D01*
X368000D02*
X372000Y271500D01*
X366000Y267500D02*
X368000D01*
X369000Y271500D02*
X372000D01*
X365500Y275000D02*
X369000Y271500D01*
X372000D02*
X375500Y275000D01*
X379000D01*
X419500Y323741D02*
Y324500D01*
Y323741D02*
X419760Y323481D01*
Y323118D02*
Y323481D01*
X402438Y235244D02*
X403681Y234000D01*
X402170Y236330D02*
X402438Y236063D01*
X372000Y271500D02*
X380661Y262839D01*
X402438Y235244D02*
Y236063D01*
X380661Y259689D02*
Y262839D01*
X360189Y280161D02*
X363339D01*
X403681Y234000D02*
X404000D01*
X304500Y362000D02*
X311500Y369000D01*
X286354Y362000D02*
X304500D01*
X311500Y369000D02*
X319000D01*
X285354Y363000D02*
X286354Y362000D01*
X277500Y363000D02*
X285354D01*
X377514Y334372D02*
Y336486D01*
Y334372D02*
X378000Y333886D01*
X376500Y337500D02*
X377514Y336486D01*
X360900Y335000D02*
X363400Y337500D01*
X376500D01*
X360500Y335000D02*
X360900D01*
X331500Y366155D02*
X331986Y365669D01*
Y365374D02*
X333360Y364000D01*
Y364000D02*
Y364000D01*
X331986Y365374D02*
Y365669D01*
X346000Y362000D02*
X351893Y367893D01*
X323000Y362000D02*
X346000D01*
X321912Y360912D02*
X323000Y362000D01*
X331500Y366155D02*
Y368114D01*
X281805Y366634D02*
X282939Y365500D01*
X277634Y366634D02*
X281805D01*
X282939Y365500D02*
X286000D01*
X284000Y368600D02*
X289514D01*
X281678D02*
X284000D01*
X291860Y364000D02*
Y364295D01*
X275500Y368328D02*
X276672Y369500D01*
X275500Y365362D02*
Y368328D01*
X274020Y363882D02*
X275500Y365362D01*
X276672Y369500D02*
X280778D01*
X281678Y368600D01*
X274020Y363564D02*
Y363882D01*
X273331Y362875D02*
X274020Y363564D01*
X273013Y362875D02*
X273331D01*
X272600Y357000D02*
X273006Y357406D01*
Y362869D02*
X273013Y362875D01*
X273006Y357406D02*
Y362869D01*
X351893Y367893D02*
X359893D01*
X360500Y368500D01*
X360631Y368631D01*
X320000Y364681D02*
X323382Y368063D01*
X325000Y368600D02*
X331014D01*
X319000Y363000D02*
X319311D01*
X320000Y363689D02*
Y364681D01*
X319311Y363000D02*
X320000Y363689D01*
X323382Y368063D02*
X324464D01*
X325000Y368600D01*
X319000Y357500D02*
Y363000D01*
X321912Y356500D02*
Y360912D01*
X323212Y354212D02*
Y359008D01*
X321437Y352437D02*
X323212Y354212D01*
Y359008D02*
X323804Y359600D01*
X324000D01*
X320412Y355000D02*
X321912Y356500D01*
X316000Y356000D02*
X317000Y355000D01*
X320412D01*
X316000Y356000D02*
Y360000D01*
X290000Y366155D02*
X291860Y364295D01*
X273413Y368875D02*
X275538Y371000D01*
X273013Y368875D02*
X273413D01*
X275538Y371000D02*
X294269D01*
X274855Y350645D02*
X275700D01*
X273804D02*
X274500D01*
Y351000D02*
X275304D01*
X283682Y359378D01*
X290000Y367435D02*
Y368114D01*
Y366155D02*
Y367435D01*
X279500Y322500D02*
X279900Y322900D01*
X281332Y322768D02*
X281600Y322500D01*
X279900Y322900D02*
X280032Y322768D01*
X279900Y322900D02*
X281723Y324723D01*
X276192Y350153D02*
X280100D01*
X280032Y322768D02*
X281332D01*
X279500Y322500D02*
Y322500D01*
X276461Y319461D02*
X279500Y322500D01*
X283682Y359378D02*
X284059D01*
X294269Y371000D02*
X294938Y370331D01*
Y367496D02*
X295000Y367435D01*
X294938Y367496D02*
Y370331D01*
X289514Y368600D02*
X290000Y368114D01*
X361300Y371000D02*
X377500D01*
X360631Y368631D02*
Y370331D01*
X377500Y371000D02*
X378000Y370500D01*
X360631Y370331D02*
X361300Y371000D01*
X319937Y369689D02*
Y370437D01*
X320500Y371000D02*
X334214D01*
X319000Y369000D02*
X319249D01*
X319937Y370437D02*
X320500Y371000D01*
X334214D02*
X336500Y368714D01*
X319249Y369000D02*
X319937Y369689D01*
X351500Y227069D02*
X351969Y226600D01*
X351500Y227069D02*
Y231500D01*
X352993Y232993D02*
Y233311D01*
X351969Y226600D02*
X360676D01*
X351500Y231500D02*
X352993Y232993D01*
Y233311D02*
X353681Y234000D01*
X354000D01*
X360500Y228500D02*
X360676Y228324D01*
Y226600D02*
X376651D01*
X360676D02*
Y228324D01*
X375500Y234000D02*
X375819D01*
X376600Y233211D02*
Y233219D01*
X375819Y234000D02*
X376600Y233219D01*
X376651Y226600D02*
X377811Y227761D01*
X376600Y233211D02*
X377811Y232000D01*
Y227761D02*
Y232000D01*
X390600D01*
X392600Y234000D01*
X393000D01*
X378000Y367435D02*
Y370500D01*
X374937Y364063D02*
Y364063D01*
X373486Y365514D02*
X374937Y364063D01*
X373000Y367435D02*
X373486Y366949D01*
Y365514D02*
Y366949D01*
X373000Y367435D02*
Y368114D01*
X274500Y318000D02*
X275107Y318607D01*
X275900D01*
X276461Y319169D02*
Y319461D01*
X275900Y318607D02*
X276461Y319169D01*
X358000Y292808D02*
X358268Y293076D01*
X363000Y296600D02*
Y297000D01*
X359476Y293076D02*
X363000Y296600D01*
X358268Y293076D02*
X359476D01*
X358000Y289469D02*
Y292808D01*
Y289469D02*
X358469Y289000D01*
X363000D01*
X369638Y283311D02*
Y286862D01*
X366000Y290500D02*
Y296000D01*
Y290500D02*
X369638Y286862D01*
X371200Y283324D02*
Y287800D01*
X368500Y290500D02*
X371200Y287800D01*
X368500Y290500D02*
Y293000D01*
X363000Y289000D02*
X366435Y285565D01*
X362500Y291500D02*
X368063Y285937D01*
X366435Y283364D02*
Y285565D01*
X368063Y283311D02*
Y285937D01*
X362817Y287000D02*
X364861Y284957D01*
X358500Y287000D02*
X362817D01*
X366435Y283364D02*
X366488Y283311D01*
X386107Y299607D02*
X386500Y300000D01*
X385500Y297000D02*
X386107Y297607D01*
Y299607D01*
X360187Y352187D02*
X365973Y357973D01*
X360819Y352000D02*
X361507Y351311D01*
Y350993D02*
Y351311D01*
Y350993D02*
X361901Y350599D01*
X360500Y352000D02*
X360819D01*
X361901Y348811D02*
Y350599D01*
Y348811D02*
X362169Y348543D01*
X377512Y289012D02*
X381000Y292500D01*
X366500Y325408D02*
X366865Y325772D01*
X360213Y317713D02*
X366500Y324000D01*
X372735Y283364D02*
Y284693D01*
X374000Y285266D02*
Y293000D01*
X372735Y283364D02*
X372787Y283311D01*
X372700Y284728D02*
Y290300D01*
X374000Y285266D02*
X374140Y285126D01*
Y284655D02*
X374309Y284486D01*
X372700Y284728D02*
X372735Y284693D01*
X371500Y291500D02*
X372700Y290300D01*
X374140Y284655D02*
Y285126D01*
X374309Y283364D02*
Y284486D01*
Y283364D02*
X374362Y283311D01*
X360584Y313628D02*
Y317415D01*
X360500Y317500D02*
X360584Y317415D01*
Y313628D02*
X360669Y313543D01*
X375000Y297000D02*
Y300000D01*
X385500Y290500D02*
Y292500D01*
X383500Y291000D02*
Y295000D01*
X385500Y296681D02*
Y297000D01*
X384811Y295993D02*
X385500Y296681D01*
X384493Y295993D02*
X384811D01*
X383500Y295000D02*
X384493Y295993D01*
X381000Y288500D02*
X383500Y291000D01*
X380714Y285714D02*
X385500Y290500D01*
X380714Y283364D02*
Y285714D01*
X380661Y283311D02*
X380714Y283364D01*
X377512Y283311D02*
Y289012D01*
X319000Y352437D02*
X321437D01*
X319213Y352000D02*
X319901Y351311D01*
Y348311D02*
Y351311D01*
X319000Y352000D02*
X319213D01*
X319901Y348311D02*
X320169Y348043D01*
X325000Y335000D02*
X331014D01*
X331500Y334514D01*
Y333835D02*
Y334514D01*
X375937Y283311D02*
Y290983D01*
X378893Y293938D01*
Y296393D01*
X379309Y284655D02*
Y286809D01*
X381000Y288500D02*
X381000D01*
X379309Y286809D02*
X381000Y288500D01*
X379139Y283364D02*
Y284486D01*
X379309Y284655D01*
X379087Y283311D02*
X379139Y283364D01*
X378893Y296393D02*
X379500Y297000D01*
X372500D02*
X375000D01*
X371500Y296000D02*
X372500Y297000D01*
X371500Y291500D02*
Y296000D01*
X371200Y283324D02*
X371213Y283311D01*
X318000Y314000D02*
Y316811D01*
X318689Y317500D01*
X319000D01*
X319500D01*
X366000Y296000D02*
X367000Y297000D01*
X369000D01*
X289500Y332555D02*
X292000Y330055D01*
X289500Y333835D02*
Y334514D01*
Y332555D02*
Y333835D01*
X292000Y330000D02*
Y330055D01*
X281723Y325408D02*
X282315Y326000D01*
X281723Y324723D02*
Y325408D01*
X282315Y326000D02*
X282500D01*
X275700Y350645D02*
X276192Y350153D01*
X364861Y283364D02*
Y284957D01*
Y283364D02*
X364913Y283311D01*
X357500Y284000D02*
X363286D01*
X354500Y287000D02*
Y294500D01*
Y287000D02*
X357500Y284000D01*
X354500Y294500D02*
X357000Y297000D01*
X363339Y283311D02*
Y283947D01*
X363286Y284000D02*
X363339Y283947D01*
X319000Y324189D02*
Y329000D01*
X318000Y323500D02*
X318311D01*
X319000Y324189D01*
X318900Y334919D02*
X319681Y335700D01*
X319700D01*
X317900Y328900D02*
X323212Y334212D01*
X319500Y317500D02*
X323500Y321500D01*
Y325500D01*
X324000Y326000D01*
X324000D01*
X366500Y324000D02*
Y325408D01*
X366865Y325772D02*
Y325865D01*
X366500Y335051D02*
X372514D01*
X365911Y334462D02*
X366500Y335051D01*
X360163Y329163D02*
X365462Y334462D01*
X360500Y323551D02*
X360500D01*
Y323551D02*
Y329000D01*
X360500Y323551D02*
X360500Y323551D01*
X365462Y334462D02*
X365911D01*
X360831Y364331D02*
X364723Y368223D01*
X360500Y362806D02*
X360831Y363137D01*
Y364331D01*
X360500Y358000D02*
Y362806D01*
X364723Y368223D02*
X366223D01*
X366500Y368500D01*
X365973Y357973D02*
Y358973D01*
X366500Y359500D01*
X362768Y236332D02*
X365100Y234000D01*
X365500D01*
X356268Y265235D02*
X358543Y267510D01*
X359014D02*
X359067Y267563D01*
X360189D01*
X356000Y264500D02*
X356268Y264768D01*
Y265235D01*
X358543Y267510D02*
X359014D01*
X388121Y265000D02*
X388500D01*
X351384Y271000D02*
X351763D01*
X395138Y269138D02*
X397000Y271000D01*
X387534Y264413D02*
X388121Y265000D01*
X353051Y272287D02*
X360189D01*
X351763Y271000D02*
X353051Y272287D01*
X346000Y265500D02*
X349500D01*
X351500Y263500D01*
X353136Y267992D02*
X355856Y270713D01*
X354000Y265500D02*
X357638Y269138D01*
X354000Y256000D02*
Y265500D01*
X350500Y252500D02*
X354000Y256000D01*
X357638Y269138D02*
X360189D01*
X343500Y252500D02*
X350500D01*
X343500Y247000D02*
Y252500D01*
X334000Y330000D02*
Y330055D01*
X331500Y332555D02*
Y333835D01*
Y332555D02*
X334000Y330055D01*
X373000Y332606D02*
X375781Y329825D01*
X373000Y332606D02*
Y333886D01*
X375781Y329700D02*
Y329825D01*
X274900Y328900D02*
X280462Y334462D01*
X281962D02*
X282500Y335000D01*
X274500Y328900D02*
X274900D01*
X280462Y334462D02*
X281962D01*
X294014Y334320D02*
X294500Y333835D01*
X294014Y334320D02*
Y336986D01*
X292500Y338500D02*
X294014Y336986D01*
X278500Y338500D02*
X292500D01*
X274900Y334900D02*
X278500Y338500D01*
X274500Y334900D02*
X274900D01*
X282500Y335000D02*
X289014D01*
X289500Y334514D01*
X323212Y334408D02*
X323804Y335000D01*
X323212Y334212D02*
Y334408D01*
X323804Y335000D02*
X324000D01*
X336500Y333835D02*
Y335114D01*
X372514Y335051D02*
X373000Y334565D01*
Y333886D02*
Y334565D01*
X372514Y368600D02*
X373000Y368114D01*
X331014Y368600D02*
X331500Y368114D01*
X336500Y367435D02*
Y368714D01*
X272600Y357000D02*
X273000D01*
X383811Y264413D02*
X387534D01*
X343500Y266000D02*
X345500D01*
X346000Y265500D01*
X397500Y256550D02*
X401000Y260050D01*
X388460Y280161D02*
X389121Y279500D01*
X383811Y280161D02*
X388460D01*
X388684Y275437D02*
X389121Y275000D01*
X383811Y275437D02*
X388684D01*
X355856Y270713D02*
X360189D01*
X383811Y277012D02*
X391012D01*
X389121Y279500D02*
X389500D01*
X391012Y277012D02*
X393500Y279500D01*
X389121Y275000D02*
X389500D01*
X383811Y269138D02*
X395138D01*
X350362Y273862D02*
X360189D01*
X352659Y275437D02*
X360189D01*
X350596Y277500D02*
X352659Y275437D01*
X348500Y272000D02*
X350362Y273862D01*
X343500Y272000D02*
X348500D01*
X397500Y256500D02*
Y256550D01*
X401000Y260050D02*
Y260500D01*
X400500Y250000D02*
Y255500D01*
Y260000D01*
X406500Y244500D02*
Y251000D01*
X394074Y263169D02*
X402831D01*
X403500Y262500D01*
X393744Y262839D02*
X394074Y263169D01*
X404000Y242000D02*
X406500Y244500D01*
X403500Y254000D02*
X406500Y251000D01*
X403500Y254000D02*
Y262500D01*
X383811Y262839D02*
X393744D01*
X400500Y250000D02*
X402000Y248500D01*
X423000Y300000D02*
X424500Y301500D01*
X427000D01*
X343500Y277500D02*
X350596D01*
X406402Y288791D02*
X443976D01*
X401000Y278479D02*
X403867Y281346D01*
Y281425D01*
X401000Y278000D02*
Y278479D01*
X390162Y270713D02*
X399849Y280400D01*
X387323Y270713D02*
X390162D01*
X399900Y280400D02*
X403370Y283870D01*
X399849Y280400D02*
X399900D01*
X403370Y283870D02*
X443976D01*
X386766Y272500D02*
X390111D01*
X406402Y288791D01*
X400813Y272813D02*
X401000Y273000D01*
X397500Y267500D02*
X400813Y270813D01*
X395246Y267500D02*
X397500D01*
X400813Y270813D02*
Y272813D01*
X401000Y273000D02*
Y278000D01*
X416500Y260000D02*
X428500D01*
X431564Y256936D01*
X416500Y264500D02*
X429000D01*
X442205Y264185D02*
X443976D01*
X437889Y268500D02*
X442205Y264185D01*
X416500Y268500D02*
X437889D01*
X441423Y269887D02*
X442205Y269106D01*
X440955Y271000D02*
X441423Y270531D01*
X416500Y273000D02*
X418500Y271000D01*
X442205Y269106D02*
X443976D01*
X418500Y271000D02*
X440955D01*
X441423Y269887D02*
Y270531D01*
X416500Y273000D02*
Y273000D01*
X436485Y245900D02*
Y257015D01*
X429000Y264500D02*
X436485Y257015D01*
X431564Y245900D02*
Y256936D01*
X274500Y324000D02*
Y328900D01*
X387323Y270713D02*
X387323Y270713D01*
X395112Y267366D02*
X395246Y267500D01*
X390046Y267366D02*
X395112D01*
X383811Y267563D02*
X389849D01*
X390046Y267366D01*
X383811Y273862D02*
X384933D01*
X385155Y273640D02*
X385626D01*
X384933Y273862D02*
X385155Y273640D01*
X385626D02*
X386766Y272500D01*
X383811Y270713D02*
X387323D01*
X404000Y240000D02*
Y242000D01*
X379000Y254500D02*
Y256490D01*
X379087Y256577D02*
Y259689D01*
X379000Y256490D02*
X379087Y256577D01*
X379000Y254500D02*
X385000Y248500D01*
X402000D01*
X419760Y312882D02*
Y313866D01*
X413500Y318000D02*
X413900D01*
X417253Y314647D01*
X418979D01*
X419760Y313866D01*
X423500Y312882D02*
Y313866D01*
X428134Y318500D01*
X433500D01*
X419000Y306500D02*
X419380Y306880D01*
Y312502D01*
X419760Y312882D01*
X333000Y260000D02*
X337500D01*
X333000Y266000D02*
X337500D01*
X333000Y272000D02*
X337500D01*
X333000Y277500D02*
X337500D01*
X315500Y260000D02*
Y266000D01*
X310500Y260000D02*
X315500D01*
X310500Y254500D02*
X310750Y254250D01*
X315250D02*
X315500Y254000D01*
X310750Y254250D02*
X315250D01*
X315500Y248000D02*
Y254000D01*
X315493Y237189D02*
X316181Y236500D01*
X314000Y239000D02*
Y243600D01*
X315493Y237189D02*
Y237507D01*
X316181Y236500D02*
X322000D01*
X314000Y239000D02*
X315493Y237507D01*
X310000Y247600D02*
X314000Y243600D01*
X310000Y247600D02*
Y248000D01*
Y242000D02*
X310250Y241750D01*
Y236750D02*
X310500Y236500D01*
X310250Y236750D02*
Y241750D01*
X305000Y236500D02*
X310500D01*
X295000Y244189D02*
X302211D01*
X304000Y242400D01*
Y242000D02*
Y242400D01*
X302224Y250095D02*
X304000Y248319D01*
X295000Y250095D02*
X302224D01*
X304000Y248000D02*
Y248319D01*
X304500Y254500D02*
Y254819D01*
X295000Y256000D02*
X303319D01*
X304500Y254819D01*
X302913Y261906D02*
X304500Y260319D01*
X295000Y261906D02*
X302913D01*
X304500Y260000D02*
Y260319D01*
X394000Y229000D02*
X398500D01*
X375819Y240000D02*
X376507Y239311D01*
Y238993D02*
Y239311D01*
Y238993D02*
X379493Y236007D01*
Y234689D02*
Y236007D01*
X375500Y240000D02*
X375819D01*
X379493Y234689D02*
X380181Y234000D01*
X380500D01*
X387900D02*
X391993Y238093D01*
X387500Y234000D02*
X387900D01*
X391993Y238093D02*
Y239393D01*
X392600Y240000D01*
X398500Y229000D02*
Y234000D01*
Y240000D02*
X404000D01*
X356600Y235151D02*
X359000Y237551D01*
X356600Y231500D02*
Y235151D01*
X354500Y229400D02*
X356600Y231500D01*
X359000Y237551D02*
Y240000D01*
X354500Y229000D02*
Y229400D01*
X348500Y229000D02*
X348750Y229250D01*
Y233750D02*
X349000Y234000D01*
X348750Y229250D02*
Y233750D01*
X371000Y229000D02*
X375500D01*
X370750Y229250D02*
X371000Y229000D01*
X370500Y234000D02*
X370750Y233750D01*
Y229250D02*
Y233750D01*
X365500Y240000D02*
X370500D01*
X387600Y245000D02*
X392600Y240000D01*
X380500Y245000D02*
X387600D01*
X379500Y243500D02*
X383600D01*
X387100Y240000D01*
X375937Y247063D02*
X379500Y243500D01*
X377512Y247988D02*
X380500Y245000D01*
X377512Y247988D02*
Y259689D01*
X387100Y240000D02*
X387500D01*
X375937Y247063D02*
Y259689D01*
X374362Y245738D02*
X380100Y240000D01*
X374362Y245738D02*
Y259689D01*
X380100Y240000D02*
X380500D01*
X372787Y242313D02*
X375100Y240000D01*
X372787Y242313D02*
Y259689D01*
X375100Y240000D02*
X375500D01*
X370524D02*
X371213Y240689D01*
X370500Y240000D02*
X370524D01*
X371213Y240689D02*
Y259689D01*
X359000Y240000D02*
Y245500D01*
X366488Y252988D01*
Y259689D01*
X364913Y255913D02*
Y259689D01*
X353500Y244500D02*
X364913Y255913D01*
X353500Y240500D02*
Y244500D01*
Y240500D02*
X354000Y240000D01*
X344000D02*
X349000D01*
X363339Y258567D02*
Y259689D01*
X349000Y244228D02*
X363339Y258567D01*
X349000Y240000D02*
Y244228D01*
D25*
X383811Y273862D02*
D03*
Y272287D02*
D03*
Y270713D02*
D03*
Y269138D02*
D03*
Y267563D02*
D03*
Y275437D02*
D03*
Y277012D02*
D03*
Y278587D02*
D03*
Y280161D02*
D03*
Y265988D02*
D03*
Y264413D02*
D03*
Y262839D02*
D03*
X360189D02*
D03*
Y264413D02*
D03*
Y265988D02*
D03*
Y267563D02*
D03*
Y269138D02*
D03*
Y270713D02*
D03*
Y272287D02*
D03*
Y278587D02*
D03*
Y277012D02*
D03*
Y275437D02*
D03*
Y273862D02*
D03*
Y280161D02*
D03*
D26*
X380661Y259689D02*
D03*
X372787D02*
D03*
X374362D02*
D03*
X375937D02*
D03*
X377512D02*
D03*
X379087D02*
D03*
X364913D02*
D03*
X363339D02*
D03*
X366488D02*
D03*
X368063D02*
D03*
X369638D02*
D03*
X371213D02*
D03*
X372787Y283311D02*
D03*
X374362D02*
D03*
X375937D02*
D03*
X377512D02*
D03*
X380661D02*
D03*
X379087D02*
D03*
X364913D02*
D03*
X366488D02*
D03*
X368063D02*
D03*
X369638D02*
D03*
X371213D02*
D03*
X363339D02*
D03*
D27*
X372000Y271500D02*
D03*
D28*
X273013Y368875D02*
D03*
Y362875D02*
D03*
X319000Y317500D02*
D03*
Y323500D02*
D03*
X360500Y362500D02*
D03*
Y368500D02*
D03*
Y358000D02*
D03*
Y352000D02*
D03*
X319000Y329000D02*
D03*
Y335000D02*
D03*
Y363000D02*
D03*
Y369000D02*
D03*
Y358000D02*
D03*
Y352000D02*
D03*
X274500Y328900D02*
D03*
Y334900D02*
D03*
Y324000D02*
D03*
Y318000D02*
D03*
X273000Y357000D02*
D03*
Y351000D02*
D03*
X360500Y323500D02*
D03*
Y317500D02*
D03*
Y329000D02*
D03*
Y335000D02*
D03*
X322000Y230500D02*
D03*
Y236500D02*
D03*
X305000Y230500D02*
D03*
Y236500D02*
D03*
X387500Y234000D02*
D03*
Y240000D02*
D03*
X393000D02*
D03*
Y234000D02*
D03*
X380500D02*
D03*
Y240000D02*
D03*
X375500D02*
D03*
Y234000D02*
D03*
X359000Y240000D02*
D03*
Y234000D02*
D03*
X349000Y240000D02*
D03*
Y234000D02*
D03*
X404000Y240000D02*
D03*
Y234000D02*
D03*
X365500Y240000D02*
D03*
Y234000D02*
D03*
X354000Y240000D02*
D03*
Y234000D02*
D03*
X344000D02*
D03*
Y240000D02*
D03*
X398500D02*
D03*
Y234000D02*
D03*
X370500Y240000D02*
D03*
Y234000D02*
D03*
X427000Y307500D02*
D03*
Y301500D02*
D03*
X433500Y324500D02*
D03*
Y318500D02*
D03*
X413500Y324000D02*
D03*
Y318000D02*
D03*
X433500Y306500D02*
D03*
Y312500D02*
D03*
X310500Y236500D02*
D03*
Y230500D02*
D03*
X316500Y236500D02*
D03*
Y230500D02*
D03*
D29*
X371000Y229000D02*
D03*
X365000D02*
D03*
X381500D02*
D03*
X375500D02*
D03*
X327000Y277500D02*
D03*
X333000D02*
D03*
X327000Y272000D02*
D03*
X333000D02*
D03*
X321500Y248000D02*
D03*
X315500D02*
D03*
X321500Y266000D02*
D03*
X315500D02*
D03*
X304500Y260000D02*
D03*
X310500D02*
D03*
X304500Y254500D02*
D03*
X310500D02*
D03*
X304000Y242000D02*
D03*
X310000D02*
D03*
X304000Y248000D02*
D03*
X310000D02*
D03*
X327000Y266000D02*
D03*
X333000D02*
D03*
X327000Y260000D02*
D03*
X333000D02*
D03*
X357000Y297000D02*
D03*
X363000D02*
D03*
X348500Y229500D02*
D03*
X354500D02*
D03*
X369000Y297000D02*
D03*
X375000D02*
D03*
X379500D02*
D03*
X385500D02*
D03*
X343500Y290500D02*
D03*
X337500D02*
D03*
X404500Y229000D02*
D03*
X398500D02*
D03*
X394000D02*
D03*
X388000D02*
D03*
X343500Y284500D02*
D03*
X337500D02*
D03*
X401000Y260500D02*
D03*
X407000D02*
D03*
X401000Y255500D02*
D03*
X407000D02*
D03*
Y278000D02*
D03*
X401000D02*
D03*
Y273000D02*
D03*
X407000D02*
D03*
X413000Y306500D02*
D03*
X419000D02*
D03*
X337500Y252500D02*
D03*
X343500D02*
D03*
X337500Y247000D02*
D03*
X343500D02*
D03*
X337500Y277500D02*
D03*
X343500D02*
D03*
X337500Y272000D02*
D03*
X343500D02*
D03*
X337500Y266000D02*
D03*
X343500D02*
D03*
X337500Y260000D02*
D03*
X343500D02*
D03*
X315500Y254000D02*
D03*
X321500D02*
D03*
X315500Y260000D02*
D03*
X321500D02*
D03*
D30*
X420764Y235500D02*
D03*
X457128D02*
D03*
D31*
X446328Y245900D02*
D03*
X441406D02*
D03*
X436485D02*
D03*
X431564D02*
D03*
D32*
X325000Y326000D02*
D03*
Y335000D02*
D03*
X366500Y326000D02*
D03*
Y335000D02*
D03*
Y359500D02*
D03*
Y368500D02*
D03*
X325000Y359500D02*
D03*
Y368500D02*
D03*
X282500Y326000D02*
D03*
Y335000D02*
D03*
X284000Y359500D02*
D03*
Y368500D02*
D03*
D33*
X373000Y333886D02*
D03*
X378000D02*
D03*
X383000D02*
D03*
X388000D02*
D03*
X373000Y367435D02*
D03*
X378000D02*
D03*
X383000D02*
D03*
X388000D02*
D03*
X331500D02*
D03*
X336500D02*
D03*
X341500D02*
D03*
X346500D02*
D03*
X331500Y333835D02*
D03*
X336500D02*
D03*
X341500D02*
D03*
X346500D02*
D03*
X290000Y367435D02*
D03*
X295000D02*
D03*
X300000D02*
D03*
X305000D02*
D03*
X289500Y333835D02*
D03*
X294500D02*
D03*
X299500D02*
D03*
X304500D02*
D03*
D34*
X380500Y322468D02*
D03*
Y356017D02*
D03*
X339000D02*
D03*
X339000Y322417D02*
D03*
X297500Y356017D02*
D03*
X297000Y322417D02*
D03*
D35*
X373000Y312035D02*
D03*
X378000D02*
D03*
X383000D02*
D03*
X388000D02*
D03*
X373000Y345584D02*
D03*
X378000D02*
D03*
X383000D02*
D03*
X388000D02*
D03*
X331500D02*
D03*
X336500D02*
D03*
X341500D02*
D03*
X346500D02*
D03*
X331500Y311984D02*
D03*
X336500D02*
D03*
X341500D02*
D03*
X346500D02*
D03*
X290000Y345584D02*
D03*
X295000D02*
D03*
X300000D02*
D03*
X305000D02*
D03*
X289500Y311984D02*
D03*
X294500D02*
D03*
X299500D02*
D03*
X304500D02*
D03*
D36*
X380500Y320500D02*
D03*
Y354049D02*
D03*
X339000D02*
D03*
X339000Y320449D02*
D03*
X297500Y354049D02*
D03*
X297000Y320449D02*
D03*
D37*
X279842Y230213D02*
D03*
Y275882D02*
D03*
D38*
X295000Y238283D02*
D03*
Y244189D02*
D03*
Y250095D02*
D03*
Y256000D02*
D03*
Y261906D02*
D03*
Y267811D02*
D03*
D39*
X412000Y248500D02*
D03*
X402000D02*
D03*
D40*
X419760Y312882D02*
D03*
X423500D02*
D03*
X427240D02*
D03*
Y323118D02*
D03*
X423500D02*
D03*
X419760D02*
D03*
D41*
X388673Y411000D02*
D03*
X360327D02*
D03*
X425673Y377500D02*
D03*
X397327D02*
D03*
X426173Y349000D02*
D03*
X397827D02*
D03*
D42*
X441000Y256500D02*
D03*
D43*
X427000D02*
D03*
D44*
X314000Y382976D02*
D03*
Y405024D02*
D03*
X288000Y382476D02*
D03*
Y404524D02*
D03*
X342500Y382976D02*
D03*
Y405024D02*
D03*
D45*
X443976Y283870D02*
D03*
Y288791D02*
D03*
Y264185D02*
D03*
Y269106D02*
D03*
Y274028D02*
D03*
Y278949D02*
D03*
D46*
X455000Y257000D02*
D03*
Y295976D02*
D03*
D73*
X339000Y320449D02*
X340815Y318634D01*
X344866D02*
X346500Y317000D01*
X340815Y318634D02*
X344866D01*
D74*
X388100Y228500D02*
X391600Y225000D01*
X409500Y226172D02*
Y239000D01*
X391600Y225000D02*
X408328D01*
X409500Y226172D01*
Y239000D02*
X414000Y243500D01*
X418000D01*
X339500Y230000D02*
X344900Y224600D01*
X337500Y244000D02*
Y247000D01*
X339500Y230000D02*
Y242000D01*
X337500Y244000D02*
X339500Y242000D01*
X337500Y247000D02*
Y252500D01*
X377500Y224600D02*
X381400Y228500D01*
Y228900D01*
X381500Y229000D01*
X344900Y224600D02*
X377500D01*
X432903Y240047D02*
X439033D01*
X445156Y240000D02*
X446328Y241172D01*
Y245900D01*
X439033Y240047D02*
X439080Y240000D01*
X445156D01*
X388100Y228500D02*
Y228900D01*
X388000Y229000D02*
X388100Y228900D01*
X341914Y282514D02*
X343500Y284100D01*
X341914Y282414D02*
Y282514D01*
X340500Y281000D02*
X341914Y282414D01*
X343500Y284100D02*
Y284500D01*
X330100Y281000D02*
X340500D01*
X327000Y277500D02*
Y277900D01*
X330100Y281000D01*
X418000Y243500D02*
X423000Y248500D01*
Y252500D02*
X427000Y256500D01*
X423000Y248500D02*
Y252500D01*
X381500Y229000D02*
X388000D01*
X337000Y253400D02*
Y255000D01*
X335500Y256500D02*
X337000Y255000D01*
X337500Y252500D02*
Y252900D01*
X337000Y253400D02*
X337500Y252900D01*
X330100Y256500D02*
X335500D01*
X327000Y259600D02*
Y260000D01*
Y259600D02*
X330100Y256500D01*
X327000Y272000D02*
Y277500D01*
Y266000D02*
Y272000D01*
Y260000D02*
Y266000D01*
X321500Y260000D02*
X327000D01*
X321500Y254000D02*
Y260000D01*
Y253600D02*
X326000Y249100D01*
Y236101D02*
Y249100D01*
X321500Y253600D02*
Y254000D01*
X323328Y233428D02*
X326000Y236101D01*
X319828Y233428D02*
X323328D01*
X316900Y230500D02*
X319828Y233428D01*
X316500Y230500D02*
X316900D01*
X310500D02*
X316500D01*
X299331Y238283D02*
X301787Y235827D01*
X303672Y233428D02*
X307172D01*
X310100Y230500D01*
X295000Y238283D02*
X299331D01*
X301787Y235314D02*
Y235827D01*
Y235314D02*
X303672Y233428D01*
X310100Y230500D02*
X310500D01*
X441000Y256000D02*
Y256500D01*
X446328Y245900D02*
Y251172D01*
X442000Y255500D02*
X446328Y251172D01*
X441500Y255500D02*
X442000D01*
X441000Y256000D02*
X441500Y255500D01*
D75*
X452000Y320000D02*
D03*
Y339685D02*
D03*
D76*
X412500Y415890D02*
D03*
X456390Y408500D02*
D03*
Y373000D02*
D03*
D77*
X412500Y402110D02*
D03*
D78*
X442610Y408500D02*
D03*
Y373000D02*
D03*
D79*
X308073Y362443D02*
D03*
X307000Y372500D02*
D03*
X345000Y372000D02*
D03*
X340000D02*
D03*
X302500Y372500D02*
D03*
X298000D02*
D03*
X385500Y369000D02*
D03*
X380500D02*
D03*
X360305Y235422D02*
D03*
X435805Y339422D02*
D03*
X440805Y343922D02*
D03*
X432305Y344422D02*
D03*
X435805Y348422D02*
D03*
X447805Y353922D02*
D03*
X447305Y362922D02*
D03*
X444305Y357922D02*
D03*
X440305Y353922D02*
D03*
Y362922D02*
D03*
X435805Y357922D02*
D03*
X436305Y367422D02*
D03*
X432305Y353922D02*
D03*
Y362922D02*
D03*
Y371422D02*
D03*
X435805Y377422D02*
D03*
X432305Y382922D02*
D03*
X439500Y383000D02*
D03*
X447500D02*
D03*
X443305Y387422D02*
D03*
X435805D02*
D03*
X436305Y404922D02*
D03*
X429305D02*
D03*
X422305D02*
D03*
X396305Y405422D02*
D03*
X402305D02*
D03*
X405805Y400922D02*
D03*
X399305Y401422D02*
D03*
X392805D02*
D03*
X389805Y396922D02*
D03*
X396305D02*
D03*
X402305D02*
D03*
X408805D02*
D03*
X415805D02*
D03*
X419305Y391922D02*
D03*
X425805Y392422D02*
D03*
X432305D02*
D03*
X439805D02*
D03*
X447305D02*
D03*
X443305Y396422D02*
D03*
X435805Y396922D02*
D03*
X428805D02*
D03*
X422305D02*
D03*
X419305Y400922D02*
D03*
X425805D02*
D03*
X432305D02*
D03*
X439805D02*
D03*
X447305D02*
D03*
X454805D02*
D03*
Y392922D02*
D03*
Y386422D02*
D03*
X455305Y379922D02*
D03*
Y366422D02*
D03*
Y352922D02*
D03*
Y359422D02*
D03*
X459305Y356422D02*
D03*
Y362922D02*
D03*
X458805Y383422D02*
D03*
Y389422D02*
D03*
Y396922D02*
D03*
X462805Y352922D02*
D03*
Y359422D02*
D03*
Y366422D02*
D03*
Y373422D02*
D03*
Y379922D02*
D03*
Y386422D02*
D03*
Y392922D02*
D03*
Y400922D02*
D03*
X398805Y413422D02*
D03*
X405805D02*
D03*
X420305Y413922D02*
D03*
X427305D02*
D03*
X450805D02*
D03*
X462805Y408922D02*
D03*
X458805Y413922D02*
D03*
X462805Y418922D02*
D03*
X454805D02*
D03*
X447305D02*
D03*
X439805D02*
D03*
X431305D02*
D03*
X423805D02*
D03*
X458805Y423422D02*
D03*
X451305D02*
D03*
X443805D02*
D03*
X435805D02*
D03*
X427805D02*
D03*
X420305D02*
D03*
X412805D02*
D03*
X402305Y419422D02*
D03*
X405805Y423422D02*
D03*
X398805D02*
D03*
X281000Y236000D02*
D03*
X286500D02*
D03*
X284000Y239500D02*
D03*
X280805Y242922D02*
D03*
X286805D02*
D03*
X283805Y246922D02*
D03*
X280805Y250922D02*
D03*
X286805D02*
D03*
X283805Y254922D02*
D03*
X286805Y258422D02*
D03*
X280805D02*
D03*
X283805Y261422D02*
D03*
X286805Y264922D02*
D03*
X280805D02*
D03*
X283805Y268422D02*
D03*
X289805D02*
D03*
X295805D02*
D03*
X292805Y271922D02*
D03*
X286805D02*
D03*
X295805Y275422D02*
D03*
X289805D02*
D03*
X286805Y278922D02*
D03*
X293000Y279000D02*
D03*
X295500Y282500D02*
D03*
X289805Y282422D02*
D03*
X285305D02*
D03*
X279805D02*
D03*
X292805Y285422D02*
D03*
X287805D02*
D03*
X282305D02*
D03*
X455805Y271422D02*
D03*
X452305Y263422D02*
D03*
X452500Y268500D02*
D03*
X455805Y266422D02*
D03*
X459305Y263422D02*
D03*
X452305Y273922D02*
D03*
X455805Y276422D02*
D03*
X459305Y273922D02*
D03*
Y268922D02*
D03*
X451805Y252422D02*
D03*
Y247422D02*
D03*
X455805Y244922D02*
D03*
Y249922D02*
D03*
X459305Y247422D02*
D03*
X462805Y244422D02*
D03*
X459305Y252422D02*
D03*
X462805Y249922D02*
D03*
Y255422D02*
D03*
Y260922D02*
D03*
Y265922D02*
D03*
Y271922D02*
D03*
Y276922D02*
D03*
X452305Y279922D02*
D03*
Y285422D02*
D03*
X455805Y282922D02*
D03*
X459305Y279922D02*
D03*
Y285422D02*
D03*
X452500Y290500D02*
D03*
X455805Y287922D02*
D03*
X459305Y290422D02*
D03*
X462805Y282422D02*
D03*
Y287922D02*
D03*
Y292922D02*
D03*
X465805Y229922D02*
D03*
Y235922D02*
D03*
Y241422D02*
D03*
Y246922D02*
D03*
Y252422D02*
D03*
Y257922D02*
D03*
Y263422D02*
D03*
Y268922D02*
D03*
Y274422D02*
D03*
Y279922D02*
D03*
Y285422D02*
D03*
Y290422D02*
D03*
Y295422D02*
D03*
Y300422D02*
D03*
X460805D02*
D03*
X463305Y309422D02*
D03*
X444805D02*
D03*
X439305D02*
D03*
X436805Y306422D02*
D03*
X461305D02*
D03*
X456805D02*
D03*
X452305D02*
D03*
X447305D02*
D03*
X442305D02*
D03*
X463305Y303422D02*
D03*
X458805D02*
D03*
X454305D02*
D03*
X449305D02*
D03*
X444805D02*
D03*
X439805D02*
D03*
X433805D02*
D03*
X441805Y292422D02*
D03*
X439305Y295922D02*
D03*
X441805Y299922D02*
D03*
X430805D02*
D03*
X436305D02*
D03*
X393305Y295922D02*
D03*
X399305D02*
D03*
X404805D02*
D03*
X410305D02*
D03*
X416305D02*
D03*
X423305D02*
D03*
X428305D02*
D03*
X433805D02*
D03*
X368500Y278000D02*
D03*
X376000D02*
D03*
X379000Y267500D02*
D03*
X366000D02*
D03*
X365500Y275000D02*
D03*
X379000D02*
D03*
X275500Y387500D02*
D03*
X279500Y392500D02*
D03*
X271500D02*
D03*
X275500Y397000D02*
D03*
X271500Y401500D02*
D03*
X279000D02*
D03*
X275500Y406000D02*
D03*
X272000Y410500D02*
D03*
X279000D02*
D03*
X275500Y414500D02*
D03*
X272000Y418500D02*
D03*
X278500D02*
D03*
X328908Y414609D02*
D03*
X335000Y414500D02*
D03*
X341000D02*
D03*
X347000D02*
D03*
X353500D02*
D03*
X332000Y419000D02*
D03*
X338000D02*
D03*
X344000D02*
D03*
X350500D02*
D03*
X275500Y423000D02*
D03*
X281500D02*
D03*
X353500Y422500D02*
D03*
X347000D02*
D03*
X340500D02*
D03*
X335000D02*
D03*
X329000D02*
D03*
X435000Y328500D02*
D03*
X429500D02*
D03*
X424000D02*
D03*
X437500Y332000D02*
D03*
X432000D02*
D03*
X426500D02*
D03*
X421000D02*
D03*
X415000D02*
D03*
X409000D02*
D03*
X402500D02*
D03*
X412000Y328000D02*
D03*
X405500D02*
D03*
X399000D02*
D03*
X419500Y324500D02*
D03*
X415000D02*
D03*
X408500D02*
D03*
X402500Y316000D02*
D03*
Y324500D02*
D03*
X396000D02*
D03*
Y316000D02*
D03*
X436000Y292500D02*
D03*
X431000D02*
D03*
X426000D02*
D03*
X420000D02*
D03*
X412500D02*
D03*
X407500D02*
D03*
X402000D02*
D03*
X396500D02*
D03*
X391000D02*
D03*
X336000Y288500D02*
D03*
X330000D02*
D03*
X324500D02*
D03*
X319500D02*
D03*
X314500D02*
D03*
X308500D02*
D03*
X302000D02*
D03*
X295500D02*
D03*
X290000D02*
D03*
X285000D02*
D03*
X280000D02*
D03*
X388500Y316000D02*
D03*
X380500D02*
D03*
X372500Y316500D02*
D03*
X388500Y324500D02*
D03*
X380500D02*
D03*
X372500D02*
D03*
X346500Y317000D02*
D03*
X339000D02*
D03*
X331000D02*
D03*
X346500Y324000D02*
D03*
X339000D02*
D03*
X331000D02*
D03*
X305000Y317000D02*
D03*
X296500D02*
D03*
X289000D02*
D03*
X305000Y324500D02*
D03*
X296500D02*
D03*
X289000D02*
D03*
X388500Y353000D02*
D03*
X380500D02*
D03*
X372500D02*
D03*
X388500Y358500D02*
D03*
X380500D02*
D03*
X372500D02*
D03*
X347000Y353000D02*
D03*
X339000D02*
D03*
X331500D02*
D03*
X347000Y358000D02*
D03*
X339000D02*
D03*
X331500D02*
D03*
X290500Y353000D02*
D03*
X304500Y357500D02*
D03*
X290500D02*
D03*
X402170Y236330D02*
D03*
X372500Y267500D02*
D03*
Y275000D02*
D03*
X333360Y364000D02*
D03*
X277634Y366634D02*
D03*
X291860Y364000D02*
D03*
X277500Y363000D02*
D03*
X286000Y365500D02*
D03*
X280100Y350153D02*
D03*
X281600Y322500D02*
D03*
X360500Y228500D02*
D03*
X374937Y364063D02*
D03*
X358000Y292808D02*
D03*
X368500Y293000D02*
D03*
X362500Y291500D02*
D03*
X386669Y300543D02*
D03*
X362169Y348543D02*
D03*
X374000Y293000D02*
D03*
X360669Y313543D02*
D03*
X375169Y300043D02*
D03*
X381000Y292500D02*
D03*
X385500D02*
D03*
X320169Y348043D02*
D03*
X318000Y314000D02*
D03*
X292000Y330000D02*
D03*
X358500Y287000D02*
D03*
X362500Y237500D02*
D03*
X356000Y264500D02*
D03*
X351384Y271000D02*
D03*
X388500Y265000D02*
D03*
X397000Y271000D02*
D03*
X351500Y263500D02*
D03*
X353136Y267992D02*
D03*
X334000Y330000D02*
D03*
X375781Y329700D02*
D03*
X393500Y279500D02*
D03*
X389500D02*
D03*
Y275000D02*
D03*
X397500Y256500D02*
D03*
X432903Y240047D02*
D03*
X403867Y281425D02*
D03*
X423000Y300000D02*
D03*
X416500Y260000D02*
D03*
Y264500D02*
D03*
Y268500D02*
D03*
Y273000D02*
D03*
M02*
