G04*
G04 #@! TF.GenerationSoftware,Altium Limited,Altium Designer,21.2.2 (38)*
G04*
G04 Layer_Color=16711935*
%FSLAX25Y25*%
%MOIN*%
G70*
G04*
G04 #@! TF.SameCoordinates,8CF34D0F-3D0A-4A82-AD64-C49C04CB85B6*
G04*
G04*
G04 #@! TF.FilePolarity,Negative*
G04*
G01*
G75*
%ADD55R,0.02572X0.05131*%
%ADD56R,0.22453X0.01981*%
%ADD57R,0.02572X0.07099*%
%ADD58R,0.17532X0.14580*%
%ADD69C,0.16548*%
%ADD70C,0.07887*%
%ADD71R,0.07887X0.07887*%
%ADD72R,0.07887X0.07887*%
G04:AMPARAMS|DCode=83|XSize=108mil|YSize=106.42mil|CornerRadius=28.61mil|HoleSize=0mil|Usage=FLASHONLY|Rotation=270.000|XOffset=0mil|YOffset=0mil|HoleType=Round|Shape=RoundedRectangle|*
%AMROUNDEDRECTD83*
21,1,0.10800,0.04921,0,0,270.0*
21,1,0.05079,0.10642,0,0,270.0*
1,1,0.05721,-0.02461,-0.02539*
1,1,0.05721,-0.02461,0.02539*
1,1,0.05721,0.02461,0.02539*
1,1,0.05721,0.02461,-0.02539*
%
%ADD83ROUNDEDRECTD83*%
%ADD84R,0.05524X0.12611*%
%ADD85R,0.03162X0.06706*%
G36*
X308500Y407000D02*
X335500Y380000D01*
X349500D01*
X358500Y371000D01*
Y357500D01*
X350500Y349500D01*
Y338000D01*
X343500D01*
X342500Y337000D01*
Y331500D01*
X330000D01*
X329500Y332000D01*
Y349500D01*
X347000D01*
Y360500D01*
X349000Y361500D01*
X350500Y361500D01*
X352500D01*
X352500Y369000D01*
X347500Y374000D01*
X333500D01*
X302500Y405000D01*
Y415000D01*
X307500D01*
X308500Y416000D01*
Y407000D01*
D02*
G37*
G36*
X294000Y408500D02*
X315500Y387000D01*
X316000D01*
Y357000D01*
X308500Y349500D01*
Y337500D01*
X301500D01*
X300500Y336500D01*
Y331500D01*
X287500D01*
Y349000D01*
X306000D01*
Y360500D01*
X305500Y361000D01*
X310000D01*
Y384000D01*
X288000Y406000D01*
X287500D01*
Y414000D01*
X288000Y414500D01*
X287500Y415000D01*
X294000D01*
Y408500D01*
D02*
G37*
G36*
X321500Y410000D02*
X342500Y389000D01*
X381000D01*
X400000Y370000D01*
Y356000D01*
X392000Y348000D01*
Y337500D01*
X385000D01*
X384000Y336500D01*
Y331000D01*
X371500D01*
X371000Y331500D01*
Y349000D01*
X387638D01*
X388500Y361500D01*
X394000D01*
Y367500D01*
X378500Y383000D01*
X340500D01*
X315500Y408000D01*
Y415000D01*
X321500D01*
Y410000D01*
D02*
G37*
G36*
X422000Y349000D02*
X460500D01*
X463000Y346500D01*
Y330000D01*
X431000D01*
X427500Y326500D01*
X418000D01*
X411500Y320000D01*
X399000Y307000D01*
X286500D01*
Y314500D01*
X380500D01*
X418500Y352500D01*
X422000Y349000D01*
D02*
G37*
D55*
X388000Y367435D02*
D03*
X383000D02*
D03*
X378000D02*
D03*
X373000D02*
D03*
X388000Y333886D02*
D03*
X383000D02*
D03*
X378000D02*
D03*
X373000D02*
D03*
X346500Y367435D02*
D03*
X341500D02*
D03*
X336500D02*
D03*
X331500D02*
D03*
X346500Y333835D02*
D03*
X341500D02*
D03*
X336500D02*
D03*
X331500D02*
D03*
X304500D02*
D03*
X299500D02*
D03*
X294500D02*
D03*
X289500D02*
D03*
X305000Y367435D02*
D03*
X300000D02*
D03*
X295000D02*
D03*
X290000D02*
D03*
D56*
X380500Y356017D02*
D03*
X380500Y322468D02*
D03*
X339000Y356017D02*
D03*
Y322417D02*
D03*
X297000D02*
D03*
X297500Y356017D02*
D03*
D57*
X388000Y345584D02*
D03*
X383000D02*
D03*
X378000D02*
D03*
X373000D02*
D03*
X388000Y312035D02*
D03*
X383000D02*
D03*
X378000D02*
D03*
X373000D02*
D03*
X346500Y345584D02*
D03*
X341500D02*
D03*
X336500D02*
D03*
X331500D02*
D03*
X346500Y311984D02*
D03*
X341500D02*
D03*
X336500D02*
D03*
X331500D02*
D03*
X304500D02*
D03*
X299500D02*
D03*
X294500D02*
D03*
X289500D02*
D03*
X305000Y345584D02*
D03*
X300000D02*
D03*
X295000D02*
D03*
X290000D02*
D03*
D58*
X380500Y354049D02*
D03*
X380500Y320500D02*
D03*
X339000Y354049D02*
D03*
Y320449D02*
D03*
X297000D02*
D03*
X297500Y354049D02*
D03*
D69*
X452000Y320000D02*
D03*
Y339685D02*
D03*
D70*
X412500Y415890D02*
D03*
X456390Y408500D02*
D03*
Y373000D02*
D03*
D71*
X412500Y402110D02*
D03*
D72*
X442610Y408500D02*
D03*
Y373000D02*
D03*
D83*
X318500Y420000D02*
D03*
X304720D02*
D03*
X290941D02*
D03*
D84*
X453500Y235000D02*
D03*
X424366D02*
D03*
D85*
X446315Y246024D02*
D03*
X441394D02*
D03*
X436472D02*
D03*
X431551D02*
D03*
M02*
