G04*
G04 #@! TF.GenerationSoftware,Altium Limited,Altium Designer,21.2.2 (38)*
G04*
G04 Layer_Color=8388736*
%FSLAX25Y25*%
%MOIN*%
G70*
G04*
G04 #@! TF.SameCoordinates,8CF34D0F-3D0A-4A82-AD64-C49C04CB85B6*
G04*
G04*
G04 #@! TF.FilePolarity,Negative*
G04*
G01*
G75*
G04:AMPARAMS|DCode=47|XSize=12.99mil|YSize=35.43mil|CornerRadius=4.23mil|HoleSize=0mil|Usage=FLASHONLY|Rotation=270.000|XOffset=0mil|YOffset=0mil|HoleType=Round|Shape=RoundedRectangle|*
%AMROUNDEDRECTD47*
21,1,0.01299,0.02697,0,0,270.0*
21,1,0.00453,0.03543,0,0,270.0*
1,1,0.00847,-0.01348,-0.00226*
1,1,0.00847,-0.01348,0.00226*
1,1,0.00847,0.01348,0.00226*
1,1,0.00847,0.01348,-0.00226*
%
%ADD47ROUNDEDRECTD47*%
G04:AMPARAMS|DCode=48|XSize=12.99mil|YSize=35.43mil|CornerRadius=4.23mil|HoleSize=0mil|Usage=FLASHONLY|Rotation=180.000|XOffset=0mil|YOffset=0mil|HoleType=Round|Shape=RoundedRectangle|*
%AMROUNDEDRECTD48*
21,1,0.01299,0.02697,0,0,180.0*
21,1,0.00453,0.03543,0,0,180.0*
1,1,0.00847,-0.00226,0.01348*
1,1,0.00847,0.00226,0.01348*
1,1,0.00847,0.00226,-0.01348*
1,1,0.00847,-0.00226,-0.01348*
%
%ADD48ROUNDEDRECTD48*%
G04:AMPARAMS|DCode=49|XSize=161.42mil|YSize=161.42mil|CornerRadius=5.91mil|HoleSize=0mil|Usage=FLASHONLY|Rotation=0.000|XOffset=0mil|YOffset=0mil|HoleType=Round|Shape=RoundedRectangle|*
%AMROUNDEDRECTD49*
21,1,0.16142,0.14961,0,0,0.0*
21,1,0.14961,0.16142,0,0,0.0*
1,1,0.01181,0.07480,-0.07480*
1,1,0.01181,-0.07480,-0.07480*
1,1,0.01181,-0.07480,0.07480*
1,1,0.01181,0.07480,0.07480*
%
%ADD49ROUNDEDRECTD49*%
G04:AMPARAMS|DCode=50|XSize=38mil|YSize=30mil|CornerRadius=9.5mil|HoleSize=0mil|Usage=FLASHONLY|Rotation=180.000|XOffset=0mil|YOffset=0mil|HoleType=Round|Shape=RoundedRectangle|*
%AMROUNDEDRECTD50*
21,1,0.03800,0.01100,0,0,180.0*
21,1,0.01900,0.03000,0,0,180.0*
1,1,0.01900,-0.00950,0.00550*
1,1,0.01900,0.00950,0.00550*
1,1,0.01900,0.00950,-0.00550*
1,1,0.01900,-0.00950,-0.00550*
%
%ADD50ROUNDEDRECTD50*%
G04:AMPARAMS|DCode=51|XSize=38mil|YSize=30mil|CornerRadius=9.5mil|HoleSize=0mil|Usage=FLASHONLY|Rotation=90.000|XOffset=0mil|YOffset=0mil|HoleType=Round|Shape=RoundedRectangle|*
%AMROUNDEDRECTD51*
21,1,0.03800,0.01100,0,0,90.0*
21,1,0.01900,0.03000,0,0,90.0*
1,1,0.01900,0.00550,0.00950*
1,1,0.01900,0.00550,-0.00950*
1,1,0.01900,-0.00550,-0.00950*
1,1,0.01900,-0.00550,0.00950*
%
%ADD51ROUNDEDRECTD51*%
%ADD52R,0.09068X0.10642*%
%ADD53R,0.03950X0.05918*%
G04:AMPARAMS|DCode=54|XSize=28mil|YSize=33mil|CornerRadius=9mil|HoleSize=0mil|Usage=FLASHONLY|Rotation=270.000|XOffset=0mil|YOffset=0mil|HoleType=Round|Shape=RoundedRectangle|*
%AMROUNDEDRECTD54*
21,1,0.02800,0.01500,0,0,270.0*
21,1,0.01000,0.03300,0,0,270.0*
1,1,0.01800,-0.00750,-0.00500*
1,1,0.01800,-0.00750,0.00500*
1,1,0.01800,0.00750,0.00500*
1,1,0.01800,0.00750,-0.00500*
%
%ADD54ROUNDEDRECTD54*%
%ADD55R,0.02572X0.05131*%
%ADD56R,0.22453X0.01981*%
%ADD57R,0.02572X0.07099*%
%ADD58R,0.17532X0.14580*%
%ADD59R,0.09855X0.06706*%
%ADD60R,0.12611X0.03950*%
G04:AMPARAMS|DCode=61|XSize=58mil|YSize=62mil|CornerRadius=16.5mil|HoleSize=0mil|Usage=FLASHONLY|Rotation=0.000|XOffset=0mil|YOffset=0mil|HoleType=Round|Shape=RoundedRectangle|*
%AMROUNDEDRECTD61*
21,1,0.05800,0.02900,0,0,0.0*
21,1,0.02500,0.06200,0,0,0.0*
1,1,0.03300,0.01250,-0.01450*
1,1,0.03300,-0.01250,-0.01450*
1,1,0.03300,-0.01250,0.01450*
1,1,0.03300,0.01250,0.01450*
%
%ADD61ROUNDEDRECTD61*%
%ADD62R,0.03162X0.05131*%
%ADD63R,0.11036X0.13202*%
G04:AMPARAMS|DCode=64|XSize=38mil|YSize=48mil|CornerRadius=11.5mil|HoleSize=0mil|Usage=FLASHONLY|Rotation=0.000|XOffset=0mil|YOffset=0mil|HoleType=Round|Shape=RoundedRectangle|*
%AMROUNDEDRECTD64*
21,1,0.03800,0.02500,0,0,0.0*
21,1,0.01500,0.04800,0,0,0.0*
1,1,0.02300,0.00750,-0.01250*
1,1,0.02300,-0.00750,-0.01250*
1,1,0.02300,-0.00750,0.01250*
1,1,0.02300,0.00750,0.01250*
%
%ADD64ROUNDEDRECTD64*%
G04:AMPARAMS|DCode=65|XSize=38mil|YSize=38mil|CornerRadius=11.5mil|HoleSize=0mil|Usage=FLASHONLY|Rotation=0.000|XOffset=0mil|YOffset=0mil|HoleType=Round|Shape=RoundedRectangle|*
%AMROUNDEDRECTD65*
21,1,0.03800,0.01500,0,0,0.0*
21,1,0.01500,0.03800,0,0,0.0*
1,1,0.02300,0.00750,-0.00750*
1,1,0.02300,-0.00750,-0.00750*
1,1,0.02300,-0.00750,0.00750*
1,1,0.02300,0.00750,0.00750*
%
%ADD65ROUNDEDRECTD65*%
%ADD66R,0.13398X0.07887*%
%ADD67R,0.06706X0.03162*%
%ADD68R,0.12611X0.05524*%
%ADD69C,0.16548*%
%ADD70C,0.07887*%
%ADD71R,0.07887X0.07887*%
%ADD72R,0.07887X0.07887*%
G36*
X305500Y378000D02*
X306000Y377500D01*
X309500D01*
Y368500D01*
X306000Y365000D01*
X293500D01*
X293000Y365500D01*
Y372000D01*
X280500D01*
X281000Y386000D01*
X305500D01*
Y378000D01*
D02*
G37*
G36*
X348000Y387000D02*
X360000D01*
X371000Y376000D01*
X389500D01*
X391500Y374000D01*
X391000Y373500D01*
Y364500D01*
X386000D01*
X372000Y365500D01*
Y371500D01*
X361500D01*
X354500Y378500D01*
X335500Y378500D01*
Y380000D01*
X314500Y401000D01*
X281000Y401000D01*
X280500Y409500D01*
X325500D01*
X348000Y387000D01*
D02*
G37*
G36*
X335000Y377500D02*
X350000D01*
X350500Y377000D01*
Y368000D01*
X347000Y364500D01*
X335000D01*
Y366000D01*
X328500Y372500D01*
Y372000D01*
X310500D01*
X310000Y372500D01*
Y378500D01*
X306500D01*
X307000Y386500D01*
X326000D01*
X335000Y377500D01*
D02*
G37*
G36*
X390500Y348000D02*
Y331000D01*
X376500D01*
X376000Y331500D01*
X376500Y332000D01*
Y339500D01*
X370000D01*
Y348500D01*
X390000D01*
X390500Y348000D01*
D02*
G37*
G36*
X349000D02*
Y331000D01*
X335000D01*
X334500Y331500D01*
X335000Y332000D01*
Y339500D01*
X328500D01*
Y348500D01*
X348500D01*
X349000Y348000D01*
D02*
G37*
G36*
X307500D02*
Y331000D01*
X293500D01*
X293000Y331500D01*
X293500Y332000D01*
Y339500D01*
X287000D01*
Y348500D01*
X307000D01*
X307500Y348000D01*
D02*
G37*
G36*
X422000Y349000D02*
X460500D01*
X463000Y346500D01*
Y330000D01*
X431000D01*
X427500Y326500D01*
X418000D01*
X411500Y320000D01*
X399000Y307000D01*
X286500D01*
Y314500D01*
X380500D01*
X418500Y352500D01*
X422000Y349000D01*
D02*
G37*
D47*
X383811Y273862D02*
D03*
Y272287D02*
D03*
Y270713D02*
D03*
Y269138D02*
D03*
Y267563D02*
D03*
Y275437D02*
D03*
Y277012D02*
D03*
Y278587D02*
D03*
Y280161D02*
D03*
Y265988D02*
D03*
Y264413D02*
D03*
Y262839D02*
D03*
X360189D02*
D03*
Y264413D02*
D03*
Y265988D02*
D03*
Y267563D02*
D03*
Y269138D02*
D03*
Y270713D02*
D03*
Y272287D02*
D03*
Y278587D02*
D03*
Y277012D02*
D03*
Y275437D02*
D03*
Y273862D02*
D03*
Y280161D02*
D03*
D48*
X380661Y259689D02*
D03*
X372787D02*
D03*
X374362D02*
D03*
X375937D02*
D03*
X377512D02*
D03*
X379087D02*
D03*
X364913D02*
D03*
X363339D02*
D03*
X366488D02*
D03*
X368063D02*
D03*
X369638D02*
D03*
X371213D02*
D03*
X372787Y283311D02*
D03*
X374362D02*
D03*
X375937D02*
D03*
X377512D02*
D03*
X380661D02*
D03*
X379087D02*
D03*
X364913D02*
D03*
X366488D02*
D03*
X368063D02*
D03*
X369638D02*
D03*
X371213D02*
D03*
X363339D02*
D03*
D49*
X372000Y271500D02*
D03*
D50*
X273013Y368875D02*
D03*
Y362875D02*
D03*
X319000Y317500D02*
D03*
Y323500D02*
D03*
X360500Y362500D02*
D03*
Y368500D02*
D03*
Y358000D02*
D03*
Y352000D02*
D03*
X319000Y329000D02*
D03*
Y335000D02*
D03*
Y363000D02*
D03*
Y369000D02*
D03*
Y358000D02*
D03*
Y352000D02*
D03*
X274500Y328900D02*
D03*
Y334900D02*
D03*
Y324000D02*
D03*
Y318000D02*
D03*
X273000Y357000D02*
D03*
Y351000D02*
D03*
X360500Y323500D02*
D03*
Y317500D02*
D03*
Y329000D02*
D03*
Y335000D02*
D03*
X322000Y230500D02*
D03*
Y236500D02*
D03*
X305000Y230500D02*
D03*
Y236500D02*
D03*
X387500Y234000D02*
D03*
Y240000D02*
D03*
X393000D02*
D03*
Y234000D02*
D03*
X380500D02*
D03*
Y240000D02*
D03*
X375500D02*
D03*
Y234000D02*
D03*
X359000Y240000D02*
D03*
Y234000D02*
D03*
X349000Y240000D02*
D03*
Y234000D02*
D03*
X404000Y240000D02*
D03*
Y234000D02*
D03*
X365500Y240000D02*
D03*
Y234000D02*
D03*
X354000Y240000D02*
D03*
Y234000D02*
D03*
X344000D02*
D03*
Y240000D02*
D03*
X398500D02*
D03*
Y234000D02*
D03*
X370500Y240000D02*
D03*
Y234000D02*
D03*
X427000Y307500D02*
D03*
Y301500D02*
D03*
X433500Y324500D02*
D03*
Y318500D02*
D03*
X413500Y324000D02*
D03*
Y318000D02*
D03*
X433500Y306500D02*
D03*
Y312500D02*
D03*
X310500Y236500D02*
D03*
Y230500D02*
D03*
X316500Y236500D02*
D03*
Y230500D02*
D03*
D51*
X371000Y229000D02*
D03*
X365000D02*
D03*
X381500D02*
D03*
X375500D02*
D03*
X327000Y277500D02*
D03*
X333000D02*
D03*
X327000Y272000D02*
D03*
X333000D02*
D03*
X321500Y248000D02*
D03*
X315500D02*
D03*
X321500Y266000D02*
D03*
X315500D02*
D03*
X304500Y260000D02*
D03*
X310500D02*
D03*
X304500Y254500D02*
D03*
X310500D02*
D03*
X304000Y242000D02*
D03*
X310000D02*
D03*
X304000Y248000D02*
D03*
X310000D02*
D03*
X327000Y266000D02*
D03*
X333000D02*
D03*
X327000Y260000D02*
D03*
X333000D02*
D03*
X357000Y297000D02*
D03*
X363000D02*
D03*
X348500Y229500D02*
D03*
X354500D02*
D03*
X369000Y297000D02*
D03*
X375000D02*
D03*
X379500D02*
D03*
X385500D02*
D03*
X343500Y290500D02*
D03*
X337500D02*
D03*
X404500Y229000D02*
D03*
X398500D02*
D03*
X394000D02*
D03*
X388000D02*
D03*
X343500Y284500D02*
D03*
X337500D02*
D03*
X401000Y260500D02*
D03*
X407000D02*
D03*
X401000Y255500D02*
D03*
X407000D02*
D03*
Y278000D02*
D03*
X401000D02*
D03*
Y273000D02*
D03*
X407000D02*
D03*
X413000Y306500D02*
D03*
X419000D02*
D03*
X337500Y252500D02*
D03*
X343500D02*
D03*
X337500Y247000D02*
D03*
X343500D02*
D03*
X337500Y277500D02*
D03*
X343500D02*
D03*
X337500Y272000D02*
D03*
X343500D02*
D03*
X337500Y266000D02*
D03*
X343500D02*
D03*
X337500Y260000D02*
D03*
X343500D02*
D03*
X315500Y254000D02*
D03*
X321500D02*
D03*
X315500Y260000D02*
D03*
X321500D02*
D03*
D52*
X420764Y235500D02*
D03*
X457128D02*
D03*
D53*
X446328Y245900D02*
D03*
X441406D02*
D03*
X436485D02*
D03*
X431564D02*
D03*
D54*
X325000Y326000D02*
D03*
Y335000D02*
D03*
X366500Y326000D02*
D03*
Y335000D02*
D03*
Y359500D02*
D03*
Y368500D02*
D03*
X325000Y359500D02*
D03*
Y368500D02*
D03*
X282500Y326000D02*
D03*
Y335000D02*
D03*
X284000Y359500D02*
D03*
Y368500D02*
D03*
D55*
X373000Y333886D02*
D03*
X378000D02*
D03*
X383000D02*
D03*
X388000D02*
D03*
X373000Y367435D02*
D03*
X378000D02*
D03*
X383000D02*
D03*
X388000D02*
D03*
X331500D02*
D03*
X336500D02*
D03*
X341500D02*
D03*
X346500D02*
D03*
X331500Y333835D02*
D03*
X336500D02*
D03*
X341500D02*
D03*
X346500D02*
D03*
X290000Y367435D02*
D03*
X295000D02*
D03*
X300000D02*
D03*
X305000D02*
D03*
X289500Y333835D02*
D03*
X294500D02*
D03*
X299500D02*
D03*
X304500D02*
D03*
D56*
X380500Y322468D02*
D03*
Y356017D02*
D03*
X339000D02*
D03*
X339000Y322417D02*
D03*
X297500Y356017D02*
D03*
X297000Y322417D02*
D03*
D57*
X373000Y312035D02*
D03*
X378000D02*
D03*
X383000D02*
D03*
X388000D02*
D03*
X373000Y345584D02*
D03*
X378000D02*
D03*
X383000D02*
D03*
X388000D02*
D03*
X331500D02*
D03*
X336500D02*
D03*
X341500D02*
D03*
X346500D02*
D03*
X331500Y311984D02*
D03*
X336500D02*
D03*
X341500D02*
D03*
X346500D02*
D03*
X290000Y345584D02*
D03*
X295000D02*
D03*
X300000D02*
D03*
X305000D02*
D03*
X289500Y311984D02*
D03*
X294500D02*
D03*
X299500D02*
D03*
X304500D02*
D03*
D58*
X380500Y320500D02*
D03*
Y354049D02*
D03*
X339000D02*
D03*
X339000Y320449D02*
D03*
X297500Y354049D02*
D03*
X297000Y320449D02*
D03*
D59*
X279842Y230213D02*
D03*
Y275882D02*
D03*
D60*
X295000Y238283D02*
D03*
Y244189D02*
D03*
Y250095D02*
D03*
Y256000D02*
D03*
Y261906D02*
D03*
Y267811D02*
D03*
D61*
X412000Y248500D02*
D03*
X402000D02*
D03*
D62*
X419760Y312882D02*
D03*
X423500D02*
D03*
X427240D02*
D03*
Y323118D02*
D03*
X423500D02*
D03*
X419760D02*
D03*
D63*
X388673Y411000D02*
D03*
X360327D02*
D03*
X425673Y377500D02*
D03*
X397327D02*
D03*
X426173Y349000D02*
D03*
X397827D02*
D03*
D64*
X441000Y256500D02*
D03*
D65*
X427000D02*
D03*
D66*
X314000Y382976D02*
D03*
Y405024D02*
D03*
X288000Y382476D02*
D03*
Y404524D02*
D03*
X342500Y382976D02*
D03*
Y405024D02*
D03*
D67*
X443976Y283870D02*
D03*
Y288791D02*
D03*
Y264185D02*
D03*
Y269106D02*
D03*
Y274028D02*
D03*
Y278949D02*
D03*
D68*
X455000Y257000D02*
D03*
Y295976D02*
D03*
D69*
X452000Y320000D02*
D03*
Y339685D02*
D03*
D70*
X412500Y415890D02*
D03*
X456390Y408500D02*
D03*
Y373000D02*
D03*
D71*
X412500Y402110D02*
D03*
D72*
X442610Y408500D02*
D03*
Y373000D02*
D03*
M02*
