M48
;Layer_Color=9474304
;FILE_FORMAT=2:5
INCH,LZ
;TYPE=PLATED
T1F00S00C0.01200
T2F00S00C0.03543
T3F00S00C0.10630
%
T01
X03605Y02285
X0360305Y0235422
X03625Y02375
X0366Y02675
X03725
X0379
Y0275
X0376Y0278
X03725Y0275
X03685Y0278
X03655Y0275
X0351384Y0271
X0353136Y0267992
X03515Y02635
X0356Y02645
X03585Y0287
X0358Y0292808
X03625Y02915
X03685Y0293
X0374
X0381Y02925
X03855
X0391
X03965
X0402
X04075
X04125
X0410305Y0295922
X0404805
X0399305
X0393305
X0386669Y0300543
X0375169Y0300043
X03895Y02795
X03935
X03895Y0275
X03885Y0265
X0397Y0271
X03975Y02565
X04165Y026
Y02645
Y02685
Y0273
X0403867Y0281425
X0416305Y0295922
X0423305
X0423Y03
X0430805Y0299922
X0436305
X0441805
X0439805Y0303422
X0444805
X0449305
X0447305Y0306422
X0452305
X0456805
X0461305
X0463305Y0309422
Y0303422
X0458805
X0454305
X0460805Y0300422
X0465805
Y0295422
Y0290422
Y0285422
X0462805Y0287922
Y0292922
X0459305Y0290422
Y0285422
Y0279922
Y0273922
Y0268922
Y0263422
X0462805Y0260922
Y0265922
X0465805Y0263422
Y0257922
X0462805Y0255422
Y0249922
Y0244422
X0465805Y0246922
Y0241422
Y0235922
Y0229922
Y0252422
X0459305
Y0247422
X0455805Y0244922
Y0249922
X0451805Y0252422
Y0247422
X0452305Y0263422
X04525Y02685
X0455805Y0266422
Y0271422
Y0276422
X0452305Y0273922
Y0279922
Y0285422
X04525Y02905
X0455805Y0287922
Y0282922
X0462805Y0282422
Y0276922
Y0271922
X0465805Y0274422
Y0268922
Y0279922
X0441805Y0292422
X0436Y02925
X0431
X0426
X0428305Y0295922
X0433805
X0439305
X0436805Y0306422
X0439305Y0309422
X0444805
X0442305Y0306422
X0433805Y0303422
X042Y02925
X0432903Y0240047
X040217Y023633
X0336Y02885
X033
X03245
X03195
X03145
X03085
X0302
X02955
X029
X0285
X028
X0282305Y0285422
X0279805Y0282422
X0285305
X0289805
X0287805Y0285422
X0292805
X02955Y02825
X0293Y0279
X0286805Y0278922
X0289805Y0275422
X0295805
X0292805Y0271922
X0286805
X0283805Y0268422
X0289805
X0295805
X0286805Y0264922
X0280805
Y0258422
X0286805
X0283805Y0261422
Y0254922
X0280805Y0250922
X0286805
X0283805Y0246922
X0280805Y0242922
X0286805
X0284Y02395
X02865Y0236
X0281
X02816Y03225
X0289Y03245
Y0317
X02965
Y03245
X0305
Y0317
X0292Y033
X02905Y0353
Y03575
X029186Y0364
X0286Y03655
X0277634Y0366634
X02775Y0363
X02801Y0350153
X03045Y03575
X0308073Y0362443
X0307Y03725
X03025
X0298
X02755Y03875
X02795Y03925
X02715
X02755Y0397
X0279Y04015
X02715
X02755Y0406
X0272Y04105
X0279
X02755Y04145
X02785Y04185
X0272
X02755Y0423
X02815
X0329Y04225
X0335
X03405
X0338Y0419
X0332
X0328908Y0414609
X0335Y04145
X0341
X0347
X03535
X03505Y0419
X0344
X0347Y04225
X03535
X0398805Y0423422
X0405805
X0412805
X0420305
X0427805
X0431305Y0418922
X0423805
X0420305Y0413922
X0427305
X0429305Y0404922
X0436305
X0439805Y0400922
X0432305
X0425805
X0419305
X0422305Y0404922
Y0396922
X0415805
X0408805
X0402305
X0396305
X0389805
X0392805Y0401422
X0399305
X0396305Y0405422
X0402305
X0405805Y0400922
Y0413422
X0398805
X0402305Y0419422
X0435805Y0423422
X0443805
X0451305
X0458805
X0462805Y0418922
X0454805
X0447305
X0439805
X0450805Y0413922
X0458805
X0462805Y0408922
Y0400922
X0454805
X0447305
Y0392422
X0439805
X0432305
X0425805
X0419305Y0391922
X0428805Y0396922
X0435805
X0443305Y0396422
Y0387422
X0435805
X0432305Y0382922
X04395Y0383
X04475
X0454805Y0386422
Y0392922
X0458805Y0389422
Y0383422
X0455305Y0379922
X0462805
Y0373422
Y0366422
X0459305Y0362922
Y0356422
X0462805Y0359422
Y0352922
X0455305
Y0359422
Y0366422
X0447305Y0362922
X0440305
X0432305
X0435805Y0357922
X0432305Y0353922
X0440305
X0447805
X0444305Y0357922
X0440805Y0343922
X0432305Y0344422
X0435805Y0348422
Y0339422
X04375Y0332
X0432
X04265
X0421
X0415
X0409
X04025
X04055Y0328
X0412
X0415Y03245
X04195
X0424Y03285
X04295
X0435
X04085Y03245
X04025
X0396
X0399Y0328
X03885Y03245
X03805
X03725
Y03165
X03805Y0316
X03885
X0396
X04025
X0375781Y03297
X03725Y0353
Y03585
X0374937Y0364063
X03805Y0369
X03855
X03885Y03585
Y0353
X03805
Y03585
X0362169Y0348543
X0347Y0353
Y0358
X0339
Y0353
X03315
Y0358
X033336Y0364
X034Y0372
X0345
X0320169Y0348043
X0334Y033
X0331Y0324
Y0317
X0339
Y0324
X03465
Y0317
X0360669Y0313543
X0318Y0314
X0436305Y0367422
X0432305Y0371422
X0435805Y0377422
X0462805Y0386422
Y0392922
X0458805Y0396922
T02
X04125Y040211
Y041589
X044261Y04085
X045639
Y0373
X044261
T03
X0452Y032
Y0339685
M30
