G04*
G04 #@! TF.GenerationSoftware,Altium Limited,Altium Designer,21.2.2 (38)*
G04*
G04 Layer_Color=16711935*
%FSLAX25Y25*%
%MOIN*%
G70*
G04*
G04 #@! TF.SameCoordinates,8CF34D0F-3D0A-4A82-AD64-C49C04CB85B6*
G04*
G04*
G04 #@! TF.FilePolarity,Positive*
G04*
G01*
G75*
%ADD86C,0.00200*%
%ADD87C,0.00394*%
%ADD88R,0.04305X0.24488*%
D86*
X271438Y362725D02*
X274587D01*
X271438Y369025D02*
X274587D01*
X271438Y362725D02*
Y369025D01*
X274587Y362725D02*
Y369025D01*
X273013Y364875D02*
Y366875D01*
X272013Y365875D02*
X274013D01*
X317425Y323650D02*
X320575D01*
X317425Y317350D02*
X320575D01*
Y323650D01*
X317425Y317350D02*
Y323650D01*
X319000Y319500D02*
Y321500D01*
X318000Y320500D02*
X320000D01*
X364850Y227425D02*
Y230575D01*
X371150Y227425D02*
Y230575D01*
X364850D02*
X371150D01*
X364850Y227425D02*
X371150D01*
X367000Y229000D02*
X369000D01*
X368000Y228000D02*
Y230000D01*
X375350Y227425D02*
Y230575D01*
X381650Y227425D02*
Y230575D01*
X375350D02*
X381650D01*
X375350Y227425D02*
X381650D01*
X377500Y229000D02*
X379500D01*
X378500Y228000D02*
Y230000D01*
X322342Y325382D02*
X327658D01*
X322342D02*
Y335618D01*
X327658D01*
Y325382D02*
Y335618D01*
X324000Y330500D02*
X326000D01*
X325000Y329500D02*
Y331500D01*
X359500Y365500D02*
X361500D01*
X360500Y364500D02*
Y366500D01*
X362075Y362350D02*
Y368650D01*
X358925Y362350D02*
Y368650D01*
X362075D01*
X358925Y362350D02*
X362075D01*
X359500Y355000D02*
X361500D01*
X360500Y354000D02*
Y356000D01*
X358925Y351850D02*
Y358150D01*
X362075Y351850D02*
Y358150D01*
X358925Y351850D02*
X362075D01*
X358925Y358150D02*
X362075D01*
X318000Y332000D02*
X320000D01*
X319000Y331000D02*
Y333000D01*
X320575Y328850D02*
Y335150D01*
X317425Y328850D02*
Y335150D01*
X320575D01*
X317425Y328850D02*
X320575D01*
X318000Y366000D02*
X320000D01*
X319000Y365000D02*
Y367000D01*
X320575Y362850D02*
Y369150D01*
X317425Y362850D02*
Y369150D01*
X320575D01*
X317425Y362850D02*
X320575D01*
X318000Y355000D02*
X320000D01*
X319000Y354000D02*
Y356000D01*
X317425Y351850D02*
Y358150D01*
X320575Y351850D02*
Y358150D01*
X317425Y351850D02*
X320575D01*
X317425Y358150D02*
X320575D01*
X273500Y331900D02*
X275500D01*
X274500Y330900D02*
Y332900D01*
X276075Y328750D02*
Y335050D01*
X272925Y328750D02*
Y335050D01*
X276075D01*
X272925Y328750D02*
X276075D01*
X273500Y321000D02*
X275500D01*
X274500Y320000D02*
Y322000D01*
X272925Y317850D02*
Y324150D01*
X276075Y317850D02*
Y324150D01*
X272925Y317850D02*
X276075D01*
X272925Y324150D02*
X276075D01*
X272000Y354000D02*
X274000D01*
X273000Y353000D02*
Y355000D01*
X271425Y350850D02*
Y357150D01*
X274575Y350850D02*
Y357150D01*
X271425Y350850D02*
X274575D01*
X271425Y357150D02*
X274575D01*
X363842Y325382D02*
X369158D01*
X363842D02*
Y335618D01*
X369158D01*
Y325382D02*
Y335618D01*
X365500Y330500D02*
X367500D01*
X366500Y329500D02*
Y331500D01*
X363842Y358882D02*
X369158D01*
X363842D02*
Y369118D01*
X369158D01*
Y358882D02*
Y369118D01*
X365500Y364000D02*
X367500D01*
X366500Y363000D02*
Y365000D01*
X322342Y358882D02*
X327658D01*
X322342D02*
Y369118D01*
X327658D01*
Y358882D02*
Y369118D01*
X324000Y364000D02*
X326000D01*
X325000Y363000D02*
Y365000D01*
X279842Y325382D02*
X285158D01*
X279842D02*
Y335618D01*
X285158D01*
Y325382D02*
Y335618D01*
X281500Y330500D02*
X283500D01*
X282500Y329500D02*
Y331500D01*
X281342Y358882D02*
X286658D01*
X281342D02*
Y369118D01*
X286658D01*
Y358882D02*
Y369118D01*
X283000Y364000D02*
X285000D01*
X284000Y363000D02*
Y365000D01*
X359500Y320500D02*
X361500D01*
X360500Y319500D02*
Y321500D01*
X358925Y317350D02*
Y323650D01*
X362075Y317350D02*
Y323650D01*
X358925Y317350D02*
X362075D01*
X358925Y323650D02*
X362075D01*
X359500Y332000D02*
X361500D01*
X360500Y331000D02*
Y333000D01*
X362075Y328850D02*
Y335150D01*
X358925Y328850D02*
Y335150D01*
X362075D01*
X358925Y328850D02*
X362075D01*
X326850Y275925D02*
Y279075D01*
X333150Y275925D02*
Y279075D01*
X326850D02*
X333150D01*
X326850Y275925D02*
X333150D01*
X329000Y277500D02*
X331000D01*
X330000Y276500D02*
Y278500D01*
X326850Y270425D02*
Y273575D01*
X333150Y270425D02*
Y273575D01*
X326850D02*
X333150D01*
X326850Y270425D02*
X333150D01*
X329000Y272000D02*
X331000D01*
X330000Y271000D02*
Y273000D01*
X321650Y246425D02*
Y249575D01*
X315350Y246425D02*
Y249575D01*
Y246425D02*
X321650D01*
X315350Y249575D02*
X321650D01*
X317500Y248000D02*
X319500D01*
X318500Y247000D02*
Y249000D01*
X321650Y264425D02*
Y267575D01*
X315350Y264425D02*
Y267575D01*
Y264425D02*
X321650D01*
X315350Y267575D02*
X321650D01*
X317500Y266000D02*
X319500D01*
X318500Y265000D02*
Y267000D01*
X320425Y230350D02*
X323575D01*
X320425Y236650D02*
X323575D01*
X320425Y230350D02*
Y236650D01*
X323575Y230350D02*
Y236650D01*
X322000Y232500D02*
Y234500D01*
X321000Y233500D02*
X323000D01*
X307500Y259000D02*
Y261000D01*
X306500Y260000D02*
X308500D01*
X304350Y258425D02*
X310650D01*
X304350Y261575D02*
X310650D01*
Y258425D02*
Y261575D01*
X304350Y258425D02*
Y261575D01*
X307500Y253500D02*
Y255500D01*
X306500Y254500D02*
X308500D01*
X304350Y252925D02*
X310650D01*
X304350Y256075D02*
X310650D01*
Y252925D02*
Y256075D01*
X304350Y252925D02*
Y256075D01*
X307000Y241000D02*
Y243000D01*
X306000Y242000D02*
X308000D01*
X303850Y240425D02*
X310150D01*
X303850Y243575D02*
X310150D01*
Y240425D02*
Y243575D01*
X303850Y240425D02*
Y243575D01*
X303425Y230350D02*
X306575D01*
X303425Y236650D02*
X306575D01*
X303425Y230350D02*
Y236650D01*
X306575Y230350D02*
Y236650D01*
X305000Y232500D02*
Y234500D01*
X304000Y233500D02*
X306000D01*
X307000Y247000D02*
Y249000D01*
X306000Y248000D02*
X308000D01*
X303850Y246425D02*
X310150D01*
X303850Y249575D02*
X310150D01*
Y246425D02*
Y249575D01*
X303850Y246425D02*
Y249575D01*
X326850Y264425D02*
Y267575D01*
X333150Y264425D02*
Y267575D01*
X326850D02*
X333150D01*
X326850Y264425D02*
X333150D01*
X329000Y266000D02*
X331000D01*
X330000Y265000D02*
Y267000D01*
X326850Y258425D02*
Y261575D01*
X333150Y258425D02*
Y261575D01*
X326850D02*
X333150D01*
X326850Y258425D02*
X333150D01*
X329000Y260000D02*
X331000D01*
X330000Y259000D02*
Y261000D01*
X356850Y295425D02*
Y298575D01*
X363150Y295425D02*
Y298575D01*
X356850D02*
X363150D01*
X356850Y295425D02*
X363150D01*
X359000Y297000D02*
X361000D01*
X360000Y296000D02*
Y298000D01*
X386500Y237000D02*
X388500D01*
X387500Y236000D02*
Y238000D01*
X389075Y233850D02*
Y240150D01*
X385925Y233850D02*
Y240150D01*
X389075D01*
X385925Y233850D02*
X389075D01*
X392000Y237000D02*
X394000D01*
X393000Y236000D02*
Y238000D01*
X391425Y233850D02*
Y240150D01*
X394575Y233850D02*
Y240150D01*
X391425Y233850D02*
X394575D01*
X391425Y240150D02*
X394575D01*
X379500Y237000D02*
X381500D01*
X380500Y236000D02*
Y238000D01*
X382075Y233850D02*
Y240150D01*
X378925Y233850D02*
Y240150D01*
X382075D01*
X378925Y233850D02*
X382075D01*
X374500Y237000D02*
X376500D01*
X375500Y236000D02*
Y238000D01*
X373925Y233850D02*
Y240150D01*
X377075Y233850D02*
Y240150D01*
X373925Y233850D02*
X377075D01*
X373925Y240150D02*
X377075D01*
X351500Y228500D02*
Y230500D01*
X350500Y229500D02*
X352500D01*
X348350Y227925D02*
X354650D01*
X348350Y231075D02*
X354650D01*
Y227925D02*
Y231075D01*
X348350Y227925D02*
Y231075D01*
X358000Y237000D02*
X360000D01*
X359000Y236000D02*
Y238000D01*
X357425Y233850D02*
Y240150D01*
X360575Y233850D02*
Y240150D01*
X357425Y233850D02*
X360575D01*
X357425Y240150D02*
X360575D01*
X368850Y295425D02*
Y298575D01*
X375150Y295425D02*
Y298575D01*
X368850D02*
X375150D01*
X368850Y295425D02*
X375150D01*
X371000Y297000D02*
X373000D01*
X372000Y296000D02*
Y298000D01*
X348000Y237000D02*
X350000D01*
X349000Y236000D02*
Y238000D01*
X347425Y233850D02*
Y240150D01*
X350575Y233850D02*
Y240150D01*
X347425Y233850D02*
X350575D01*
X347425Y240150D02*
X350575D01*
X379350Y295425D02*
Y298575D01*
X385650Y295425D02*
Y298575D01*
X379350D02*
X385650D01*
X379350Y295425D02*
X385650D01*
X381500Y297000D02*
X383500D01*
X382500Y296000D02*
Y298000D01*
X403000Y237000D02*
X405000D01*
X404000Y236000D02*
Y238000D01*
X402425Y233850D02*
Y240150D01*
X405575Y233850D02*
Y240150D01*
X402425Y233850D02*
X405575D01*
X402425Y240150D02*
X405575D01*
X364500Y237000D02*
X366500D01*
X365500Y236000D02*
Y238000D01*
X363925Y233850D02*
Y240150D01*
X367075Y233850D02*
Y240150D01*
X363925Y233850D02*
X367075D01*
X363925Y240150D02*
X367075D01*
X353000Y237000D02*
X355000D01*
X354000Y236000D02*
Y238000D01*
X352425Y233850D02*
Y240150D01*
X355575Y233850D02*
Y240150D01*
X352425Y233850D02*
X355575D01*
X352425Y240150D02*
X355575D01*
X342425Y233850D02*
X345575D01*
X342425Y240150D02*
X345575D01*
X342425Y233850D02*
Y240150D01*
X345575Y233850D02*
Y240150D01*
X344000Y236000D02*
Y238000D01*
X343000Y237000D02*
X345000D01*
X397500D02*
X399500D01*
X398500Y236000D02*
Y238000D01*
X396925Y233850D02*
Y240150D01*
X400075Y233850D02*
Y240150D01*
X396925Y233850D02*
X400075D01*
X396925Y240150D02*
X400075D01*
X369500Y237000D02*
X371500D01*
X370500Y236000D02*
Y238000D01*
X368925Y233850D02*
Y240150D01*
X372075Y233850D02*
Y240150D01*
X368925Y233850D02*
X372075D01*
X368925Y240150D02*
X372075D01*
X343650Y288925D02*
Y292075D01*
X337350Y288925D02*
Y292075D01*
Y288925D02*
X343650D01*
X337350Y292075D02*
X343650D01*
X339500Y290500D02*
X341500D01*
X340500Y289500D02*
Y291500D01*
X401500Y228000D02*
Y230000D01*
X400500Y229000D02*
X402500D01*
X398350Y230575D02*
X404650D01*
X398350Y227425D02*
X404650D01*
X398350D02*
Y230575D01*
X404650Y227425D02*
Y230575D01*
X391000Y228000D02*
Y230000D01*
X390000Y229000D02*
X392000D01*
X387850Y230575D02*
X394150D01*
X387850Y227425D02*
X394150D01*
X387850D02*
Y230575D01*
X394150Y227425D02*
Y230575D01*
X343650Y282925D02*
Y286075D01*
X337350Y282925D02*
Y286075D01*
Y282925D02*
X343650D01*
X337350Y286075D02*
X343650D01*
X339500Y284500D02*
X341500D01*
X340500Y283500D02*
Y285500D01*
X407000Y247500D02*
Y249500D01*
X406000Y248500D02*
X408000D01*
X400700Y250862D02*
X404834D01*
Y246137D02*
Y250862D01*
X400700Y246137D02*
Y250862D01*
Y246137D02*
X404834Y246137D01*
X409165Y250862D02*
X413299D01*
Y246138D02*
Y250862D01*
X409165Y246138D02*
Y250862D01*
Y246138D02*
X413299D01*
X401684Y245350D02*
X412315D01*
Y251650D01*
X401684D02*
X412315D01*
X401684Y245350D02*
Y251650D01*
X400850Y258925D02*
Y262075D01*
X407150Y258925D02*
Y262075D01*
X400850D02*
X407150D01*
X400850Y258925D02*
X407150D01*
X403000Y260500D02*
X405000D01*
X404000Y259500D02*
Y261500D01*
X426000Y304500D02*
X428000D01*
X427000Y303500D02*
Y305500D01*
X425425Y301350D02*
Y307650D01*
X428575Y301350D02*
Y307650D01*
X425425Y301350D02*
X428575D01*
X425425Y307650D02*
X428575D01*
X400850Y253925D02*
Y257075D01*
X407150Y253925D02*
Y257075D01*
X400850D02*
X407150D01*
X400850Y253925D02*
X407150D01*
X403000Y255500D02*
X405000D01*
X404000Y254500D02*
Y256500D01*
X432500Y321500D02*
X434500D01*
X433500Y320500D02*
Y322500D01*
X431925Y318350D02*
Y324650D01*
X435075Y318350D02*
Y324650D01*
X431925Y318350D02*
X435075D01*
X431925Y324650D02*
X435075D01*
X412500Y321000D02*
X414500D01*
X413500Y320000D02*
Y322000D01*
X411925Y317850D02*
Y324150D01*
X415075Y317850D02*
Y324150D01*
X411925Y317850D02*
X415075D01*
X411925Y324150D02*
X415075D01*
X407150Y276425D02*
Y279575D01*
X400850Y276425D02*
Y279575D01*
Y276425D02*
X407150D01*
X400850Y279575D02*
X407150D01*
X403000Y278000D02*
X405000D01*
X404000Y277000D02*
Y279000D01*
Y272000D02*
Y274000D01*
X403000Y273000D02*
X405000D01*
X400850Y271425D02*
X407150D01*
X400850Y274575D02*
X407150D01*
Y271425D02*
Y274575D01*
X400850Y271425D02*
Y274575D01*
X431925Y306350D02*
X435075D01*
X431925Y312650D02*
X435075D01*
X431925Y306350D02*
Y312650D01*
X435075Y306350D02*
Y312650D01*
X433500Y308500D02*
Y310500D01*
X432500Y309500D02*
X434500D01*
X416000Y305500D02*
Y307500D01*
X415000Y306500D02*
X417000D01*
X412850Y304925D02*
X419150D01*
X412850Y308075D02*
X419150D01*
Y304925D02*
Y308075D01*
X412850Y304925D02*
Y308075D01*
X337350Y250925D02*
Y254075D01*
X343650Y250925D02*
Y254075D01*
X337350D02*
X343650D01*
X337350Y250925D02*
X343650D01*
X339500Y252500D02*
X341500D01*
X340500Y251500D02*
Y253500D01*
X426323Y252957D02*
X441678D01*
X426323D02*
Y260044D01*
X441678D01*
Y252957D02*
Y260044D01*
X433001Y256500D02*
X435001D01*
X434001Y255500D02*
Y257500D01*
X340500Y246000D02*
Y248000D01*
X339500Y247000D02*
X341500D01*
X337350Y245425D02*
X343650D01*
X337350Y248575D02*
X343650D01*
Y245425D02*
Y248575D01*
X337350Y245425D02*
Y248575D01*
X340500Y276500D02*
Y278500D01*
X339500Y277500D02*
X341500D01*
X337350Y275925D02*
X343650D01*
X337350Y279075D02*
X343650D01*
Y275925D02*
Y279075D01*
X337350Y275925D02*
Y279075D01*
X340500Y271000D02*
Y273000D01*
X339500Y272000D02*
X341500D01*
X337350Y270425D02*
X343650D01*
X337350Y273575D02*
X343650D01*
Y270425D02*
Y273575D01*
X337350Y270425D02*
Y273575D01*
X340500Y265000D02*
Y267000D01*
X339500Y266000D02*
X341500D01*
X337350Y264425D02*
X343650D01*
X337350Y267575D02*
X343650D01*
Y264425D02*
Y267575D01*
X337350Y264425D02*
Y267575D01*
X340500Y259000D02*
Y261000D01*
X339500Y260000D02*
X341500D01*
X337350Y258425D02*
X343650D01*
X337350Y261575D02*
X343650D01*
Y258425D02*
Y261575D01*
X337350Y258425D02*
Y261575D01*
X309500Y233500D02*
X311500D01*
X310500Y232500D02*
Y234500D01*
X308925Y230350D02*
Y236650D01*
X312075Y230350D02*
Y236650D01*
X308925Y230350D02*
X312075D01*
X308925Y236650D02*
X312075D01*
X315500Y233500D02*
X317500D01*
X316500Y232500D02*
Y234500D01*
X314925Y230350D02*
Y236650D01*
X318075Y230350D02*
Y236650D01*
X314925Y230350D02*
X318075D01*
X314925Y236650D02*
X318075D01*
X318500Y253000D02*
Y255000D01*
X317500Y254000D02*
X319500D01*
X315350Y252425D02*
X321650D01*
X315350Y255575D02*
X321650D01*
Y252425D02*
Y255575D01*
X315350Y252425D02*
Y255575D01*
X318500Y259000D02*
Y261000D01*
X317500Y260000D02*
X319500D01*
X315350Y258425D02*
X321650D01*
X315350Y261575D02*
X321650D01*
Y258425D02*
Y261575D01*
X315350Y258425D02*
Y261575D01*
D87*
X417594Y314653D02*
X429405D01*
X417594Y321346D02*
X429405D01*
X417594Y314653D02*
Y321346D01*
X429405Y314653D02*
Y321346D01*
X358496Y398756D02*
X390504D01*
X358496Y423244D02*
X390504D01*
Y398756D02*
Y423244D01*
X358496Y398756D02*
Y423244D01*
X395496Y365256D02*
X427504D01*
X395496Y389744D02*
X427504D01*
Y365256D02*
Y389744D01*
X395496Y365256D02*
Y389744D01*
X395996Y336756D02*
X428004D01*
X395996Y361244D02*
X428004D01*
Y336756D02*
Y361244D01*
X395996Y336756D02*
Y361244D01*
X307405Y381303D02*
Y406697D01*
X320595Y381303D02*
Y406697D01*
X307405Y381303D02*
X320595D01*
X307405Y406697D02*
X320595D01*
X281405Y380803D02*
Y406197D01*
X294595Y380803D02*
Y406197D01*
X281405Y380803D02*
X294595D01*
X281405Y406197D02*
X294595D01*
X335906Y381303D02*
Y406697D01*
X349095Y381303D02*
Y406697D01*
X335906Y381303D02*
X349095D01*
X335906Y406697D02*
X349095D01*
D88*
X388351Y411000D02*
D03*
X425351Y377500D02*
D03*
X425851Y349000D02*
D03*
M02*
