G04*
G04 #@! TF.GenerationSoftware,Altium Limited,Altium Designer,21.2.2 (38)*
G04*
G04 Layer_Color=32768*
%FSLAX25Y25*%
%MOIN*%
G70*
G04*
G04 #@! TF.SameCoordinates,8CF34D0F-3D0A-4A82-AD64-C49C04CB85B6*
G04*
G04*
G04 #@! TF.FilePolarity,Positive*
G04*
G01*
G75*
%ADD87C,0.00394*%
%ADD89C,0.00197*%
D87*
X423500Y316032D02*
Y319969D01*
X421531Y318000D02*
X425468D01*
X374500Y409031D02*
Y412968D01*
X372532Y411000D02*
X376468D01*
X411500Y375532D02*
Y379468D01*
X409531Y377500D02*
X413469D01*
X412000Y347031D02*
Y350969D01*
X410032Y349000D02*
X413969D01*
X312032Y394000D02*
X315968D01*
X314000Y392032D02*
Y395969D01*
X286032Y393500D02*
X289968D01*
X288000Y391531D02*
Y395468D01*
X340531Y394000D02*
X344468D01*
X342500Y392032D02*
Y395969D01*
D89*
X440378Y237000D02*
G03*
X440378Y237000I-1378J0D01*
G01*
X285551Y253047D02*
G03*
X285551Y253047I-1378J0D01*
G01*
X439000Y235032D02*
Y238968D01*
X437032Y237000D02*
X440969D01*
X282205Y253047D02*
X286142D01*
X284173Y251079D02*
Y255016D01*
X416900Y309900D02*
X430100D01*
X416900Y326100D02*
X430100D01*
X416900Y309900D02*
Y326100D01*
X430100Y309900D02*
Y326100D01*
X355504Y424386D02*
X393496D01*
X355504Y397614D02*
X393496D01*
Y424386D01*
X355504Y397614D02*
Y424386D01*
X392504Y390886D02*
X430496D01*
X392504Y364114D02*
X430496D01*
Y390886D01*
X392504Y364114D02*
Y390886D01*
X393004Y362386D02*
X430996D01*
X393004Y335614D02*
X430996D01*
Y362386D01*
X393004Y335614D02*
Y362386D01*
X306913Y378646D02*
Y409354D01*
X321087Y378646D02*
Y409354D01*
X306913Y378646D02*
X321087D01*
X306913Y409354D02*
X321087D01*
X280913Y378146D02*
Y408854D01*
X295087Y378146D02*
Y408854D01*
X280913Y378146D02*
X295087D01*
X280913Y408854D02*
X295087D01*
X335413Y378646D02*
Y409354D01*
X349587Y378646D02*
Y409354D01*
X335413Y378646D02*
X349587D01*
X335413Y409354D02*
X349587D01*
M02*
